<?xml version="1.0" encoding="UTF-8"?>
<svg id="Ebene_1" data-name="Ebene 1" xmlns="http://www.w3.org/2000/svg" viewBox="0 0 987 987">
  <defs>
    <style>
      .cls-1 {
        stroke-width: 0px;
      }
    </style>
  </defs>
  <polygon class="cls-1" points="764.45 568.81 764.45 647.97 206.56 647.97 206.56 329.81 103.41 329.81 103.41 643.32 211.2 751.12 760.74 751.12 867.6 643.32 867.6 568.81 764.45 568.81"/>
  <polygon class="cls-1" points="758.71 219.81 211.2 219.81 103.41 327.6 103.41 641.12 206.56 641.12 206.56 322.95 763.36 322.95 763.36 641.12 866.51 641.12 866.51 327.6 758.71 219.81"/>
  <polyline class="cls-1" points="485.27 467.9 217.77 282.73 163.88 336.17 484.83 565.12 485.27 564.68 485.71 565.12"/>
  <polyline class="cls-1" points="484.32 467.9 751.82 282.73 805.71 336.17 484.77 565.12 484.32 564.68 483.88 565.12"/>
</svg>