<?xml version="1.0" encoding="UTF-8"?>
<svg id="Ebene_1" data-name="Ebene 1" xmlns="http://www.w3.org/2000/svg" viewBox="0 0 987 987">
  <defs>
    <style>
      .cls-1 {
        stroke-width: 0px;
      }
    </style>
  </defs>
  <polygon class="cls-1" points="754.45 570.81 754.45 699.97 296.56 699.97 296.56 261.81 193.41 261.81 193.41 695.32 301.2 803.12 750.74 803.12 857.6 695.32 857.6 570.81 754.45 570.81"/>
  <g>
    <rect class="cls-1" x="592.5" y="209.2" width="103" height="318" transform="translate(839.02 1083.93) rotate(-135)"/>
    <polygon class="cls-1" points="582.51 154.77 582.83 244.81 756.54 255.65 767.39 429.36 857.42 429.68 839.75 173.07 839.12 173.07 839.12 172.45 582.51 154.77"/>
  </g>
  <polygon class="cls-1" points="301.2 151.81 193.41 259.6 193.41 693.12 296.56 693.12 296.56 254.95 415.51 254.95 415.51 151.81 301.2 151.81"/>
</svg>