<?xml version="1.0" encoding="UTF-8"?>
<svg id="Ebene_1" data-name="Ebene 1" xmlns="http://www.w3.org/2000/svg" viewBox="0 0 273.83 118.5">
  <defs>
    <style>
      .cls-1 {
        fill: #1d1d1b;
        stroke-width: 0px;
      }
    </style>
  </defs>
  <path class="cls-1" d="m67.68,84.11h10.03v8.54h-10.03v-8.54Zm0-8.69l-8.69,8.69v25.69l8.69,8.69h10.1l8.62-8.69v-5.56h-8.69v5.56h-10.03v-8.46h18.72v-17.23l-8.62-8.69h-10.1Zm51.62,0l-4.07,4.15-4.07-4.15h-4.23l-5.8,6.03v-6.03h-8.69v43.08h8.69v-34.39h6.82v34.39h8.69v-34.39h6.81v34.39h8.69v-34.23l-8.62-8.85h-4.23Zm68.45,25.85h10.03v8.54h-10.03v-8.54Zm-.08-25.85l-8.62,8.69v5.56h8.69v-5.56h10.03v8.46h-10.1l-8.62,8.69v8.38l8.62,8.85h4.31l5.8-6.03v6.03h8.69v-34.39l-8.69-8.69h-10.1Zm33.29,0l-8.69,8.69v25.69l8.69,8.69h10.1l8.62-8.69v-7.13h-8.69v7.13h-10.02v-25.69h10.02v7.13h8.69v-7.13l-8.62-8.69h-10.1ZM4.94,63.66v11.75H0v8.69h4.94v25.46l8.69,8.93h6.97v-8.69h-6.97v-25.69h6.97v-8.69h-6.97v-11.75H4.94Zm20.83-3.91v58.75h8.69v-34.39h10.02v34.39h8.69v-34.23l-8.62-8.85h-4.31l-5.79,6.03v-21.69h-8.69Zm129.55,24.36h10.03v25.69h-10.03v-25.69Zm-8.69-24.36v58.75h8.69v-6.03l5.8,6.03h4.31l8.62-8.85v-25.38l-8.62-8.85h-10.1v-15.66h-8.69Zm98.54,0v58.75h8.77v-16.53l3.37-4.54,6.89,21.07h9.63l-10.49-29.3,10.26-13.79h-10.65l-9.01,13.55v-29.22h-8.77Z"/>
  <path class="cls-1" d="m32.43,11.75l-2.98,32.66-4.31-24.83h-9.08l-4.31,24.83-2.98-32.66H.78l5.72,43.08h9.95l4.15-22.87,4.15,22.87h9.95l5.72-43.08h-7.99Zm20.83,8.69h10.03v8.54h-10.03v-8.54Zm0-8.69l-8.69,8.69v25.69l8.69,8.69h10.1l8.62-8.69v-5.56h-8.69v5.56h-10.03v-8.46h18.72v-17.23l-8.62-8.69h-10.1Zm62.35,0l-2.98,32.66-4.31-24.83h-9.08l-4.31,24.83-2.98-32.66h-7.99l5.72,43.08h9.95l4.15-22.87,4.15,22.87h9.95l5.72-43.08h-7.99Zm20.6,25.85h10.02v8.54h-10.02v-8.54Zm-.08-25.85l-8.62,8.69v5.56h8.69v-5.56h10.02v8.46h-10.1l-8.62,8.69v8.38l8.62,8.85h4.31l5.8-6.03v6.03h8.69V20.44l-8.69-8.69h-10.1Zm39.95,0l-5.8,6.03v-6.03h-8.69v43.08h8.69V20.44h10.03v34.39h8.69V20.6l-8.62-8.85h-4.31ZM197.62,0v11.75h-4.93v8.69h4.93v25.46l8.69,8.93h6.97v-8.69h-6.97v-25.69h6.97v-8.69h-6.97V0h-8.69Z"/>
</svg>