<?xml version="1.0" encoding="UTF-8"?>
<svg id="Ebene_1" data-name="Ebene 1" xmlns="http://www.w3.org/2000/svg" viewBox="0 0 987 987">
  <defs>
    <style>
      .cls-1 {
        fill: #fff;
        fill-rule: evenodd;
        stroke-width: 0px;
      }
    </style>
  </defs>
  <path class="cls-1" d="m367.52,516.19c.96-.89,1.91-1,3.3-.89,1.74.16,3.87.16,4.93-1.93.19-.26.46-.53.7-.68,1.9-1.1,3.79-2.13,5.68-3.16.79,1.52-.79,1.83-1.74,2.71.65.1,1.01.07,1.39.21.48.21,1.16.39,1.41.79.53.98,1.32,1.18,2.29,1.22,1.14.09,2.31.24,3.68.41.71-.61,1.67-1.47,3-.34.58.47,1.29.29,1.44-.38.37-1.28,1.05-1.73,2.32-1.52.21.03.44-.24.65-.35-.15-1.91-2.43-1.37-3.18-2.79,1.12.24,2.06.42,3.36.69-.77-.99-1.25-1.59-1.74-2.23.86-.67,1.08-.18,1.41.29.48.75,1.01,1.41,2.22.75-.29-.58-.58-1.12-.89-1.78,2.06.16,2,2.71,3.76,3-.1.53-.2.96-.31,1.44.27.06.49.17.6.1,1.52-.71,2.17-3.3,1.09-4.75-1.02-1.37-2.18-2.68-3.21-4.06-.31-.42-.53-.94-.88-1.69,1,.19,1.69.32,2.78.5-.46-.78-.66-1.16-.91-1.64.41-.38.83-.75,1.24-1.12-.06-.14-.06-.32-.15-.38-1.87-1.1-3.74-2.19-5.65-3.25-1.35-.74-2.12-1.71-1.75-3.36.13-.53,0-1.04,0-1.87.76.25,1.46.27,1.94.61.98.72,1.92.72,2.91.18.33-1.96-2.25-2.06-2.4-3.72,1.47-.47,2.68.27,4.2,1.26-.89-2.27-2.5-3.76-2.4-6.05.73.43,1.5.85,2.46,1.35.4-.83.73-1.64,1.23-2.74.31,1.62.9,2.87,2.44,3.49.24-.38.52-.77.91-1.42.53.88,1.14,1.53,1.35,2.3.19.68-.08,1.47-.12,2.34,1.27,1.13,2.59,2.4,4.07,3.74-.73.88-1.34,1.6-1.65,2-1.06.18-1.81.32-2.53.34-.48.04-1.01-.06-1.52-.19-1.31-.43-2.62-.94-3.93-1.36-.16-.06-.38.11-.53.19,0,.15-.06.36-.02.4,1.78,1.02,3.53,2.12,5.78,1.83.66-.07,1.36.18,2.06.17.58-.04,1.12-.3,1.47-.38.92,1.17,1.76,2.29,2.62,3.4.27.32.41.7.62,1.02.4.66.71,1.48,1.27,1.96,1.11.96,2.38,1.7,2.31,3.44,1.67,1.04,1.79,3.79,4.3,3.96.2.03.44.29.46.29.19,1.02.35,1.79.53,2.59.08.44.35,1.09.15,1.33-.86,1.13-.25,2.26-.2,3.4.06,1.23-.31,2.48-.53,4.03,0,0,.2.16.46.26,1.41.58,2.25,1.76,3,3.03.58.97,1,2.03,2.39,2.25.38.05.79.64,1.06,1.1.6,1.09,1.5,1.59,2.75,1.59,1.14.03,2.2.19,3.21.9.44.32,1.23.17,1.87.2.6.06,1.21.12,1.81.17v.46c-.66.13-1.34.26-2.29.44,1.16,1.01,2.18,1.86,3.21,2.66.25.2.65.34.92.31,1.41-.24,2.27.41,3.18,1.45.68.84,1.74,1.37,2.66,2.05.5.34,1.54.34,1.27,1.22-.11.41-.94.63-1.6,1.02.54.5,1.08,1.06,1.67,1.57.98.85,1.92,1.64,2.12,3.03.06.35.33.74.64.96.96.76,2.02,1.44,3.12,2.18.66-1.44,1.23-2.68,1.81-3.94,2,.94,3,3.8,2.25,6.2,1.62,1.35,1.72,1.22,3.58.42,1.69-.72,2.93-1.94,4.22-3.27-.75-1.01-1.49-2.02-.17-3.08.15-.14.2-.54.13-.78-.55-1.64-.65-3.53-2.58-4.41-3.1-1.38-5.01-4.07-7.23-6.43-.27-.27-.53-.66-.54-1.04-.13-1.82-1.32-2.96-2.46-4.2-3.82-4.25-3.36-4.41-9.23-4.53-.35,0-.66,0-.98-.06-.85-.18-1.12-.73-.64-1.47.33-.56.75-1.03,1.27-1.81-.71-.27-1.21-.53-1.74-.61-2.84-.5-5.28-1.78-7.49-3.48-1.46-1.15-2.84-2.41-4.64-2.99-1.01-.32-1.54-1.46-1.36-2.61.13-.89.46-1.75.73-2.82,1.49.88,2.29,2,2.55,3.38,1.64.51,3.21.96,4.93,1.47.76-1.44,1.51-2.82,2.18-4.22.46-.92.25-1.69-.66-2.21-.4-.24-.7-.59-1.12-.76-1.31-.63-1.54-1.69-1.41-2.99.09-.76.23-1.41,1.02-1.75,1.08-.5,1.38-1.37,1.36-2.58-.05-.58.35-1.23.68-1.74.46-.72,1.17-1.32,1.6-2.04.53-.85,1.11-1.36,2.23-1.24,1.14.13,1.26.96,1.64,1.8-.98,1.12-1.82,2.29-1.71,3.85,0,.19-.13.47-.27.54-1.59,1.01-.79,2.27-.44,3.51.5,1.45.98,2.89,1.29,4.4.38,1.76.71,2.1,2.6,2.15.33.03.68.03.96.18.84.59,1.63,1.23,2.56,1.92-.06.22-.15.5-.2.82-.18.85.2,1.36,1.01,1.65,1.16.4,2.33.83,3.45,1.3.38.19.71.59.96.94.5.64.94,1.3,1.43,2.02.53-.03,1.06,0,1.54-.1,1.23-.21,2.41-.4,3.14.96,2.83.85,4.33,3.39,6.39,5.16.64.56,1.12,1.29,1.67,1.94.19.24.32.76.54.76,1.56.19,1.85,1.72,2.81,2.51,1.06.83,2.1,1.63,3.01,2.56.4.4.46,1.06.71,1.6.89,1.78,1.75,3.56,2.73,5.31.2.42.56.92,1,1.1,1.52.64,3.08,1.14,4.64,1.79,1.94.78,2.93.6,4.3-1.02.2-.27.4-.53.56-.82.73-1.38,1.85-2.06,3.44-2.34,2.18-.41,3.58-2.22,5.16-3.58.5-.41.17-1.67,1.29-1.89,1.48-.29,3-.55,4.4.38,1.04.72,2.1,1.4,3.12,2.13.54.37,1.11.64,1.64.16.91-.72,1.71-.4,2.53.06.85.42,1.71.79,2.7,1.24,1.71-1.56,4.02-2.58,4.49-5.24.06-.18.23-.4.19-.56-.63-2.07.27-4.06.29-6.09,0-1.75.13-3.29,2.08-4.02.33-.14.73-.38.96-.7.83-1.22,1.83-2.02,3.46-1.44.33.1.81-.12,1.12-.32.96-.5,1.83-1.06,2.76-1.59.08-.64.17-1.23.22-1.81.08.08.17.14.25.22.88-.97,1.83-1.86,2.6-2.9,1.23-1.66,2.35-3.38,3.47-5.11,1-1.55.98-2.31-.12-3.79-.63-.9-1.34-1.81-2.02-2.71-.04-.1-.1-.24-.22-.64.83-.38,1.71-.77,2.81-1.28.27-2.32,2.48-4.14,2.6-6.95,1.39-.68,2.88-1.44,4.4-2.12,1.59-.72,1.79-2.57,3-3.76.58.19,1.29.43,2.04.7.46-.41.94-.83,1.41-1.3,2.83,1.26,5.82.92,8.74.79.76-.04,1.46-.25,1.87-.94.53-.87,1.35-1.19,2.33-1.15.91.02,1.46-.4,1.87-1.23,1.04-2.18,3.08-2.14,4.41-.43,1.04,1.34,2.25,2.5,2.83,4.25.5,1.46,1.75,2.61,3.7,2.4,1.24-.13,2.52.18,3.56-.83.65-.65,1.37-.25,2.06-.06,1.37.43,2.7,1.21,4.3.38-.19,1.83-.41,3.49-.53,5.17-.12,1.62-.15,3.24-.23,5.08.63-.17,1.27-.34,1.97-.56.66.61.56,1.35.23,2.21.63.23,1.21.45,1.94.72-.35,1.86-.35,3.72-1.95,5.05-.25.24-.58.66-.58.99-.04,1.06-.52,1.9-1.11,2.74-.23.36-.23.85-.33,1.31-.17.76-.38,1.51-.5,2.29-.12.6-.18,1.23-.31,1.89,0,.1.13.26.06.37-.65,1.28-.06,2.55-.06,3.82,0,1.69.13,3.31.6,4.9.1.42.04,1.12-.2,1.44-.86.97-.65,2.03-.6,3.12.35.06.65.08.96.1.22.76-.31,1.87,1.12,1.94.2.03.56,1,.53,1.54-.05.65-2.27,2.17-2.91,2.06-1.44-.21-2.41-.14-2.93,1.65-.46,1.6-3.39,2.1-4.72,1.06-.38-.29-.73-.6-.89-.74-1.23,0-2.29-.06-3.28.02-.66.08-1.44.27-2,.56-.91.46-1.62.48-2.62.06-2.66-1.2-5.47-2.1-8.45-1.2-1.67.51-3.24.44-4.8-.32-.86-.42-1.71-.64-2.66-.1-.36.2-.98.07-1.46-.03-.5-.13-1-.42-1.47-.64-1.81-.82-3.66-.18-4.7,1.5-1.02,1.62-1.47,3.35-1.35,5.28.08,1.62,0,1.62-.78,2.7.73,1.94.66,3.8-.4,6.53-1.54.24-1.71-1.39-2.66-2.16.2,2.06,1.67,2.62,3.26,3.19.15.73.33,1.47.58,2.4-.38-.15-.71-.26-1.18-.47.06.78.04,1.48.17,2.18.08.31.38.82.65.88,2.12.32,3.16,2.37,4.98,3.04.31,1.03-1.46,2.02.56,3.02-.65.41-1.12.73-1.59,1.02.02.05.08.14.1.18.79-.1,1.52-.24,2.43-.37.2.76.38,1.44.58,2.29,2.41.37,4.74,1.35,7.11,2.12.79.27,1.74.06,2.88.06.31.6,1.56,1.3.4,2.58,0,.02.38.31.43.53.06.27,0,.56,0,1.12.2.08.73.27,1.18.46.02.2.08.38.02.46-1.06,1.19-2.6,1.72-4.04,1.64-1.01-.06-1.79.14-2.6.48-.86.31-1.71.7-2.58,1.07-.73-.76-1.37-1.44-1.79-1.9-1.34-.06-2.39-.18-3.47-.1-1.11.07-2.18.37-3.28.58.1.53.31.96.2,1.28-.54,1.73.04,3.02,1.29,4.29.35.4.27,1.3.41,2.12-1.18.19-2.14.32-3.21.46-.25-.72-.45-1.34-.68-1.89-2.56-.66-5.05-1.62-7.8-.4.29.34.48.56.66.82.15.22.25.45.38.72-1.11,1.09-2.23,1.84-3.83,1.94-2.93.24-3.95,1.16-4.76,4.11-.25.89-.4,1.8-.6,2.7-.23,1.17-.81,1.94-2.06,2.08-1.49.18-2.78.68-3.64,2.05-.6.84-1.46,1.14-2.45.53-.38-.22-.91-.24-1.39-.36-.08.17-.18.32-.29.49.6.31,1.14.64,1.74.96-.13.14-.2.27-.27.42-.54-.05-1.02-.11-1.58-.16-.02.16-.11.36-.08.53.06.35-.38,2.76-.58,3.09-1.09,1.52-1.92,3.02-2,5.04-.08,2.35-.66,2.65-3.12,3.23-.46.11-.86.39-1.27.61-.66.42-1.34.88-2,1.3-.76.49-1.46,1.21-2.52.73-.17-.08-.54.04-.71.2-1.19,1.28-2.5,1.26-3.79.36-.25.56-.31,1.23-.69,1.44-1.5.78-2.98,1.82-4.95.82.06-.4.15-.85.06-1.28-.13-.41-.38-.83-.58-1.24-1.93.2-.65,1.47-.81,2.3-1.54.11-.52-1.47-1.54-2.02-.1.66-.2,1.25-.31,1.82-.1.59-.2,1.15-.33,1.65h-1.95c.41,1.65.81,3.13,1.23,4.68.31-.03.6-.07.89-.1.06,0,.1.1.17.17-.06,1.06-1.14.65-1.74,1.27.29.42.54.99.94,1.33,1.08.93,1.29,2.06,1.18,3.41-.1,1.94.63,2.65,2.66,2.65.35.94.06,1.72-.65,2.31-.75.61-.68,1.34-.5,2.15.17.83.96,1.66.13,2.59-.1.1.29.56.38.84.1.53.17,1.07.27,1.92-.81-.29-1.26-.47-1.71-.65-.48-.19-.96-.41-1.47-.62-.35.94-.71,1.81-1.01,2.66-1.39-.38-.71-1.41-1.06-2.15-.27-.03-.58-.06-1.06-.12.31,1.21.58,2.27.86,3.39q-1.56-.3-3.04.89c1.85-.45,3.49.2,5.01-.76.85-.56,1.41-1.2,1-2.48.78.38,1.47.7,2.08.99-.4,2.3-2.25,2.76-3.95,3.06-1.16.19-1.74.74-2.23,1.62-.71,1.23-1.6,1.94-3.12,2.1-.83.08-1.58.78-2.65,1.36.71-1.23.75-2.29.2-3.39-.12-.29-.08-.89.13-1.11,1.16-1.23,1.39-2.77,1.58-4.45-.78-1.41-2.12-1.97-4.06-1.41-.04-.86-.1-1.54-.1-2.12,1.06-1.26,1.97,0,3.1.02.06-.69.12-1.31.15-1.94.15-1.68.46-1.96,2.25-2-.15-1.56,1.47-1.38,2.29-2.29-.81-.88-.93-1.88,0-2.75-.83-1.48-1.59-2.84-3.36-3.38.31-.67.58-1.23.94-1.93-.54-.08-1.04-.19-1.56-.26.06-.38.1-.7.17-1.26-.58.49-.98.86-1.5,1.28-.62-.39-1.27-.85-2.06-1.38-.66.59-1.29,1.16-1.94,1.76-.27-1.52-.06-2.22,1.12-3.41-1.16-.31-2.29-.8-3.23.39-.13.17-.29.36-.43.36-1.46-.06-2.89.14-4.08,1.24-.06-.14-.15-.27-.18-.38-.05.42-.09.86-.17,1.44-.49.03-.94.08-1.59.14.06-.38.1-.64.15-.95-1.83-.25-2.27,1.19-3.21,2.36-1-.07-1.81-.6-2.1-1.89.15-.1.22-.24.3-.24.68,0,1.44.05,1.47-.88.05-.96-.81-.89-1.43-1.06-.9-.2-1.85-.1-2.55-.96.12-.18.17-.34.27-.5.58-.99.43-1.44-.66-1.53-.94-.07-1.85,0-2.95,0-.23,2.64-2.18,3.29-4.2,3.88-.9.24-1.74.64-2.66.84-.89.22-1.79.41-2.18,1.45-.1.3-.6.48-.96.64-.27.17-.71.17-.92.41-1.78,1.92-4.37,1.59-6.59,2.32-1.37.47-2.77-.24-4.2-.65.5-.48,1.46-.51,1.16-1.47-.24-.75-.6-1.34-1.47-1.4-.83-.06-1.71,0-2.53-.17-2.48-.46-3.87,1.65-5.82,2.59.27.02.69.19.77.07.56-.83,1.31-.34,2-.44.33,1.34-.38,2.12-1.27,2.18-1.5.11-3.11,1.07-4.53-.45-1.17,1.36-1.59,2.74-1.27,4.75.6-.65,1.01-1.07,1.6-1.65-.06.45-.05.74-.13,1-.94,2.51-.92,4.95.65,7.15,1.12,1.6.22,3.21-.46,4.23-1.32,1.98-1.19,4.27-2.02,6.41-1.7.48-3.44.99-5.2,1.49-.79-1-1.65-2.08-2.44-3.2-.37-.53-.75-1.06-1.08-1.65-.97-1.83-2.11-1.94-3.49-.4-1.08,1.16-1.34,2.31-1.08,3.97.33,2.04.06,4.18.06,6.43.56-.35,1.19-.75,1.97-1.25.69,1.71,3.21,2.51,1.92,5.05.29.08.62.18,1.01.3.08.76.27,1.54.27,2.34.05,2.07-.75,2.79-2.88,2.85-.2.03-.43.06-.54.17-1.56,1.87-3.49,1.61-5.54,1-.04-.02-.1,0-.3-.02-.46,1-1.39,1.62-2.48,1.2-1.59-.64-3.26-.38-4.85-1.36-1.19-.76-3.06-.6-4.64-.6-.98,0-1.47,1.03-1.25,2.08.13.37.2.71.4,1.33-.48-.16-.71-.22-.88-.32-.22-.13-.41-.32-.71-.58-.33.56-.6,1.04-.88,1.55-.08-.1-.17-.2-.2-.3-1.49.7-3,1.39-4.32,2-1.04-.48-1.92-.84-2.77-1.25-.06.08-.1.19-.13.28.71.82,1.46,1.64,2.25,2.58,2.6-.82,4.37.55,6.03,2.29-.13.22-.17.29-.2.29-.17.03-.38,0-.71,0,.05.45.06.9.09,1.28.96.58,1.84.1,3.43-1.92.53.47,1,.92,1.62,1.52.54-1.2,1.44-1.15,2.58-.94,1.08.19,2.18.02,3.3,0,.38,0,.73-.16,1.11-.11,1.6.25,2.08,0,2.78-1.54.06-.13.27-.22.53-.42.18.48.27.83.27.9.81-.14,1.6-.42,2.35-.34.77.06,1.27-.22,1.74-.66.76-.69,1.5-1.35,2.63-1.06.24.06.66-.14.89-.35.81-.66,1.65-.96,2.66-1.13.58-.1,1.06-.76,1.95-1.5-1.14,2.17.6,2.76,1.39,3.99-.11.37-.27.82-.48,1.57.75-.34,1.18-.55,1.47-.68,1.6.96,3.1,1.86,4.64,2.78.66-.14,1.39-.32,2.11-.42.41-.05.83.06,1.26.1-.06.41-.08.83-.18,1.23-.03.27-.2.5-.36.88.36.26.69.5,1.21.84-.33,1.6-.78,3.24-.94,4.93-.06.84.29,1.83.76,2.58.64,1.04,1.21,2,1.05,3.3-.06.35.03.94.25,1.12,1.52,1.1.88,2.92,1.69,4.18-.6.98-1.78,1.59-1.35,3,.11.3-.54.83-.91,1.36-.53-.18-1-.35-1.48-.5-1.12.76-2.35,1.48-1.33,3.11-.79.8-1.34,1.86-2.77,1.2v2.53c-1.27.22-2.04,1.02-2.57,2.08-1,1.83-2.6,3.23-3.6,5.05-.73,1.34-1.37,1.57-3.19,2.08,0,1.38-.13,2.82.05,4.25.08.88.81,1.55,1.74,1.55,1.01,0,1.71.34,2.52.96,1.34,1.06,3.01.6,4.51.53.86-.03,1.73.03,2.6-.24.86-.21,2,.62,3.12,1.04.18-.69.17-1.58.6-1.94.37-.34,1.27-.08,2.1-.08-.43-.34-.81-.64-1.29-1.03.75-.42,1.34-.77,2-1.15.41-1.4-.4-2.98.43-4.47.33-.53.19-1.34-.35-2.02-.53-.64-.71-1.57-1.06-2.46.31-.26.62-.58,1-.84.68-.42,1-.99.94-1.82-.11-1.33.33-2.19,1.73-2.74.79-.32,1.6-.9,2.11-1.86.44-.72.86-2.27,2.46-1.44.13.06.6-.34.75-.59.77-1.37,1.96-2.2,3.44-2.63.12-.03.29-.07.35-.19.25-.53.37-1.14.7-1.62.36-.52,1.22-.86,1.27-1.35.38-1.7,1.52-2.48,2.81-3,0-1.35-.04-2.66-.08-3.94-.02-.54.05-1.07-.13-1.54-.2-.76-1.01-1.55.53-1.69.06-.92.18-1.86.15-2.82,0-.27-.29-.53-.41-.83-.53-1.13-.25-2.22.33-3.32-.68-.51-1.27-.96-1.89-1.44.56-.59,1.21-1.15,1.69-1.81.2-.22.15-.65.2-.99.48-.08,1.34.76,1.39-.56-.48.18-.94.38-1.39.56-.38.24-.81.4-1.06.76-.41.6-1.39,1.09-.79,2.07-.81-.14-1.6-.31-2.72-.53-.94-1.3-2.29-2.61-3.87-3.79-.77-.53-.98-1.94-1.27-3-.25-.97.62-1.39,1.21-1.9.66-.56,1.36-1.06,1.95-1.52-.41-1.23-.75-2.03-1.06-3.01.48-.26,1.04-.5,1.44-.88.41-.37.68-.88,1.12-1.46.33.47.55.84.86,1.35.68-.88,1.34-1.73,2.02-2.58,1.06.21,2.18.42,3.46.66-.68-1.06-2.27-.14-2.66-1.62.65-.14,1.27-.24,2.25-.42-.75-.56-1.27-.94-1.94-1.44.43-.21.75-.41,1.12-.56-.38-1.01-.69-2.05-1.06-3.24.54-.27,1.06-.54,1.67-.83-.86-1.15.2-2.79-1.12-3.86.41-1.03,1.71-1.97.53-3.22.78-1.6-.19-3.48.96-5.13.76-1.1.92-2.62,1.39-4.13,1.79,1.71,3.78.94,5.63.94.92,0,1.87-.49,2.73-.91.86-.41.79-1.3.66-2.12-.27-1.86.04-2.1,1.78-1.96.69.04,1.44-.09,2.06-.38,1-.51,1.87-.53,2.77.21,0,.61-.05,1.28.04,1.89.13.99.13,1.94,1.16,2.58.47.27.61,1,.96,1.68-1.46.56-1.76,1.79-1.92,3.24h1.57c.83.86,1.64,1.72,2.79,2.91.59,1.96,1.36,4.5,3.65,6.22-.31,1.49-.63,2.99-1.04,4.76.15.17.49.64.84,1.12.13.03.25.14.38.1q1.85-.14,2.27,1.57c.25,1.17.5,2.3.73,3.47-.54.53-1.02.95-1.56,1.4.27.14.41.24.63.32.94.42,2.35.61,2.72,1.33.54,1.12.33,2.58.43,3.88.04.48.1.97.13,1.43.18-.03.5-.03.54-.09.13-.47.17-.99.23-1.46.04-.19-.02-.41-.06-.63.43-.37.86-.74,1.34-1.2-.83-.88-2.23-1.59-1.39-2.95.43-.71.98-1.86,2.41-1.2.1-.2.17-.42.31-.64.22-.26.43-.74.71-.74.23-.03.58.34.78.6.38.51.65,1.04.96,1.57.1-.06.23-.1.36-.17-.25-.76-.46-1.51-.66-2.3.66-.33,1.16-.59,1.74-.88.17-.54.27-1.12.48-1.68.17-.42.33-1.1.66-1.23,1.12-.38,1.79-1.24,2.58-2,.73-.61,1.39-1.22,2.48-.68.63.29,1.16.07,1.62-.66.4-.63,1.34-.88,2.08-1.34.73.9,1.29,1.61,2,2.53.43-.66.66-1.1.98-1.58.71.73,1.29,1.47,1.97,2.05.79.62,1.6,1.29,2.52,1.53,1.27.37,1.69,1.35,2.33,2.26.58.85.58,1.59-.46,2.39-.98-.28-2.12-.58-3.33-.9-.1.22-.23.52-.38.76,1.5.32,1.6.59.94,2.01-.33.76,0,1.91.79,2.56.66-.63,1.31-1.21,2.12-1.93.58.64,1.06,1.15,1.52,1.62-.19,1.89-1.69,2.05-2.88,2.17-.91.04-1.24.47-1.79,1.06.41.31,1.06.56,1.12.88.04.42-.4.88-.58,1.34-.2.45-.36.96-.6,1.38-.4.72-.86,1.38-1.81.66-.19.53-.4,1.03-.69,1.76,1.12-.2,2.1-.41,3.14-.61.31-.99.54-2.06,1.74-2.53.17,1.84.73,3.57-.6,5.37,1.62,0,1.9-1.52,2.95-1.78q.58.71-.38,2.22c.38.19.86.24,1.09.53.18.24.12.73.15,1.2-2.2.54-4.32,1.58-6.39-.04-.65.44-1.27.88-2.12,1.47-.08-.83-.13-1.31-.19-1.89h-1.39c-.22.82-.45,1.56-1.47,1.8-.89.25-1.04.99-.33,1.55.4-.32.76-.61,1.14-.9.08.24.17.44.28.85,1-.83,2.39.19,3.39-.76,1.06-1.07,2.29.06,3.39-.24,1.19-.32,2.43-.62,3.74,0-.2,1.2-.15,2.47-1.77,2.71.38.03.73.06.92.06.4.75.71,1.38,1.01,2.08-1.11.74-2.35.99-3.82.53-1.23-.38-2.48-.22-3.68.53,2.12.2,4.29.42,6.55.66.06.56.54,1.2-.69,1.23-.41.02-.76.69-1.16,1.06-.85-.29-1.24-1.79-2.39-.74.08.33.2.74.27,1.08-.6.4-1.14.76-1.64,1.07-.73.41-1.47.24-2.02-.51-.18-.27-.31-.56-.45-.85-.15.05-.38.05-.4.14-.13.38-.19.74-.29,1.14,1.34.69,2.56,1.38,4,2.12-2.25,1.02-2.83.94-5.23-.64-.75.4-1.54.82-2.48,1.34,1.54.76,3.74.26,4.12,2.82-2.5.27-4.62-.11-6.55-1.68.45.76.91,1.5,1.39,2.24-.1.08-.18.17-.29.24-.89-.58-1.79-1.17-2.66-1.75-.98,1.65,1.83.72,1.21,2.11-.46.16-1.01.31-1.69.55.25.45.43.8.68,1.32-1.24.07-2.37.12-3.7.2.35.72.54,1.12.81,1.59-.6.36-1.12.68-1.71,1.02-.71-1.15-1.37-2.18-2.18-3.47-.48.76-.94,1.44-1.34,2.07-1.09-.53-1.77-.84-2.48-1.19-1.06.65-.56,1.29-.02,1.86-.38,1.58-2.93.46-2.83,2.65.31.19.75.42,1.29.72-.43.38-.81.72-1.29,1.14.43.1.78.34,1.12.27.92-.2,1.92-2.13,1.85-3.38,1.06-.64,2.14-1.28,3.03-1.84,1.73.1.69,1.94,1.73,2.41-.6,1.16-1.21,2.41-1.9,3.64-.15.35-.35.88-.62.91-.92.07-.86.75-1.06,1.35-.43,1.3-1.24,1.52-2.6.6-.45.29-.91.65-1.39.99.2.35.39.61.54.8-1.06,1-2.06,1.98-3.06,2.95-1,.96-2.76.82-3.51,2.4.66.26,1.74-.52,1.85.61.08.9-.46,1.6-1.69,1.65.43.53.73.9,1.12,1.4-.4.19-.76.36-1.23.53.07.9.61,2.13-1.53,2.13.83.8,1.36,1.35,1.97,1.92-1.12,1.26-2.78-.53-4.16.76.96.66,1.74,1.21,2.5,1.7-.56.99-1.16,2.1-1.82,3.11-.62.91.08,1.36.71,1.96-.36.24-.63.54-.9.56-1.57.27-2.9,1.1-4.4,1.62-.7.3-1.64.06-2.57.06-.06.41.15.69.86.69.48.02,1.01.54,1.41.42.81-.21.88.26,1.14.92-1.34-.07-.65,1.42-1.47,1.87-.6-.48-1.17-.91-1.87-1.47v3.67c.54-.27,1.1-.5,1.74-.76.06.59.1,1.16.19,2h-3.77c.06,1.96,2.23.56,2.91,1.86-1.08.35-2.14.64-3.43,1.02-.42-1.08-.84-2.28-1.27-3.48-.06,0-.13.03-.18.03v1.81c.05,2.66-.91,3.26-3.3,2.13-.18-.07-.31-.24-.65-.49-.41.65-.86,1.26-1.36,2.08,2.08.35,3.89-.58,5.73.1-1.33.39-1.58,2.11-2.68,2.27-1.49.22-1.76,1.42-2.68,2.13.31.29.53.48,1,.88-.97.36-1.81.64-2.7.96-.06.7-.11,1.5-.19,2.29-.19.14-.41.27-.62.41-.16-.38-.27-.73-.46-1.06-.18-.35-.33-.7-.53-1.04-.44.24-.83.42-1.25.64.58.41,1.17.8,2.02,1.4-.91.42-1.43.67-2.19,1.05.02-2.08-1.96-2.05-2.69-3.25-.37.69-.17,1.17.58,1.31,1.47.29.96,1.62,1.11,2.41.1.94-.71,1.47-1.96,1.45-.1-.77-.2-1.55-.29-2.31-.06,0-.17,0-.25-.02-.08.79-.04,1.66-.35,2.34-.38.72-1.06,1.28-1.6,1.92-.17-.05-.29-.1-.43-.18-.16-1.35-.28-2.71-.42-4.13-.43.32-.91.7-1.56,1.15.19.26.4.56.6.89-.44,1.7-2.6.8-3.14,2.29-.94-.75-1.71-1.39-2.55-2.08.22,1.12.37,2,.58,3,.97.4,2.06.9,3.16,1.36v.5c-.92.38-1.83.77-2.58,1.06-1.74-.55-3.36-1.06-5.16-1.62-.35-.71,0-2.41-1.94-2.04.51,1.1.58,2.15.15,3.32-.56,1.57-.96,1.9-2.48,1.7-.45.53-.91,1.02-1.43,1.59.22.3.58.81,1.06,1.45h-1.35c-.13.38-.27.8-.51,1.4-.76-.34-1.43-.64-2.22-1-.13.14-.31.45-.54.83-.65-.3-1.25-.59-1.81-.86-.15-1.39,1.23-1.75,1.58-2.69.4-.88-.48-1.94.27-2.86.66-.74.18-1.27-.2-1.88q-1.87,1.1-1.39,3c-1.05,1.79-2.04,3.48-3.05,5.19-1.52-.8.35-2.59-1.12-3.33.38-.59.65-1.1,1.1-1.9-1,.27-1.76.42-2.55.63-.58,1.13.27,2.78-1.27,3.63.38.17.65.32,1,.53-.13,1.4-1,.89-1.91.57.12.65.22,1.18.32,1.75-1.86.53-2.83-1.33-4.37-1.33q.53-1.73,2.77-1.73c-.94-.6-1.6-1.03-2.4-1.56.3-.42.73-.91,1.34-1.6-.76.08-1.27.14-1.92.19-.22-.38-.48-.8-.81-1.28-.2.18-.48.34-.46.42.11.58.27,1.14.4,1.57-.44.88-.81,1.65-1.21,2.46-1.94,0-2.06-.07-2.08-1.7-1.04-.53-1.85-.17-2.62.63-.58-.24-1.11-.44-1.73-.69.15-.41.2-.71.31-1.03-1.98.03-3.83-.27-5.61-1.73,1.03-.45,1.89-.76,2.64-1.23.73-.42,1.34-1.1,2.06-1.52.37-.2.88-.2,1.31-.18,1.46.14,2.89.34,4.45.21-.5-.32-1.01-.88-1.56-.88-1.57-.03-2.29-.99-2.81-2.21-.54-.03-1.02-.06-1.59-.08-.19.35-.33.7-.54,1.07-.19-.08-.4-.1-.53-.24-.15-.17-.22-.39-.35-.56-.86,1.12-1.54-.03-2.22-.18-1-.24-.96-.3-1.9-1.47-1.18.76-2.43,1.57-1.41,3.79-2.35-.97-3.74-2.66-5.91-2.91,1.46-.84,2.76-.93,3.89.29.77-1.43.75-1.49-.54-1.89-.4-.14-.73-.41-1.12-.66-1.21-.7-2.43-1.15-3.82-.62q-.89-1.32-.68-2.02c-1.27-.32-1.54.5-1.59,1.27-.86.3-1.54.53-2.35.83-1.29-.94-2.75-1.81-4.57-.7-.13.08-.4-.02-.58-.07-3.56-1.2-7.1-2.42-10.01-4.9-1.45-1.21-2.99-2.24-4.51-3.29-.66-.46-1.19-1.5-2.31-.66-.15.1-.6-.22-.89-.38-.86-.46-1.71-.94-2.62-1.45-.23.38-.41.7-.63,1.02-1.71-1.97-2.62-4.76-6.03-4.68-1.36-.96-1.16-3.77-3.64-3.65-1.46-2.66.02-4.58,1.27-6.49-.23-.49-.41-.88-.6-1.26.15-.2.27-.4.37-.56,1.11-1.35,2.11-2.95,4.29-2.63,3.11-1.16,6.25-.64,9.36-.16.57.07,1.11.42,1.59.76.58.4,1.1.9,1.74,1.41.48-.42.94-.8,1.44-1.23,1.12-.07,2.08,1.23,3.36.64.06-.05.25.06.33.17,1.35,1.94,3.49,1.52,5.51,1.88.53.1.86,1.23,1.92,1.5,1.03.26,2.02.92,3.08,1.35,1.1.42,1.92,1.52,3.1,2.5h1.54c-.37-2.36-1.82-3.61-4.2-4.3.73-.53,1.22-.9,1.73-1.27q-1.34-.3-2.9.4c-.13-.08-.31-.17-.46-.27-.27-.22-.53-.42-.88-.72.35-.48.66-.94,1.12-1.54-1.34,0-2.31-1.17-3.66-.56-.27.11-.75-.21-1.06-.42-.65-.38-1.19-.9-1.85-1.2-1.74-.82-2.2-2.13-1.72-3.91.1-.32.1-.64.18-1.12.94.19,1.63-.16,1.9-1.12-.36-.14-.86-.15-1.06-.4-1.27-1.68-2.6-3.35-3.74-5.12-.31-.53.02-1.39.06-2.35-.73-.56-1.59-1.28-2.5-2-.58.27-1.12.54-1.59.76-1.35-.6-2.56-1.27-2.58-2.89-1.94-.77-3.82-1.52-5.82-2.31-.73.41-1.6.88-2.55,1.4-.09,1.62.68,2.95,1.81,4.29.73-.24,1.45-.5,2.02-.68,1.52,1.04,2.93,1.96,4.35,2.95.76.56.94,1.52.19,2.29-.63.65-.05,1.1-.06,1.63-.03.37-.03.89-.23,1.03-.35.19-.89.24-1.27.07-.91-.47-1.76-1.13-2.7-1.67-.89-.53-1.87-.97-2.81-1.47-.44-.25-1.32-.14-.96-1.12,0-.06-.58-.48-.71-.4-1.27.72-2.12-.17-3.12-.7-.48-.26-1.03-.58-1.54-.88-.64-.38-1.18-.72-1.99-.29-.44.21-1.12-.1-1.85-.21.54.96,1.12,1.92-.35,2.61,1.31,1.48,2.43,2.8,3.53,4.09,1.3,1.55,1.22,2.3-.2,3.7-.37.37-.75.76-.96,1.23-.6,1.3-1.01,2.61-2.79,2.74-.35,0-.72.68-1.05,1.09-.69.94-1.42,1.89-2.03,2.74-1.95-.65-3.7-1.22-5.43-1.85-.35-.14-.58-.63-.94-1.04-.86.84-1.76.55-2.45-.22,0,1.9-.06,3.78,0,5.7.02,1.73,1.05,2.69,2.59,3.03.98.21,1.37.65,1.39,1.6,0,1.62-.13,3.33.2,4.89.38,1.89.65,3.88,2.56,5.14,1.21.8,2.72,1.38,3.62,3.29-1.23-.55-2.14-.9-3-1.33-.86-.45-1.67-.58-2.66-.58-1.47-.03-3-.26-4.51-.56-1.14-.21-2.25-.61-2.66-1.99-.13-.38-.77-.65-1.23-.88-1.27-.72-2.12-1.68-2.12-3.33.79-.27,1.54-.75,2.22-.72,1.23.08,1.6-1.1,2.55-1.38.48-.16.38-1.52-.08-1.94-1.82-1.65-3.64-3.27-5.51-4.89-.96.05-1.74.48-2.93-.06-1.71-.8-3.28.84-3.19,2.76.06.66,0,1.36.15,2,.11.56.4,1.12.66,1.92-1.34.24-2.62.51-3.91.75.22.41.5.94.7,1.44-3.18.19-4.24,2.76-5.49,4.45-1.72.53-3.05.96-4.65,1.46-.88-.24-1.17-1.3-1.44-2.58-.5.42-.81.72-1.23,1.06.6.7,1.12,1.34,1.74,2.06-.53.35-.92.64-1.34.94-.64-.56-.86-1.57-2.08-1.52.08.46.11.8.2,1.12.15.38.33.73.54,1.12-1.39.84-2.72,1.54-4.47,1.12.57-1.18,1.96-.14,2.56-1.15-.66-.37-1.6-.6-1.98-1.2-.37-.55-.2-1.48-.31-2.26.55-.32,1.09-.66,1.65-1.02-.05-.16-.05-.31-.11-.47-.58-.19-1.21-.56-1.76-.49-1.21.18-2.6-.48-3.68.7-.13.14-.73-.17-1.23-.27.06.69.18,1.39.22,2.05-.83.33-1.59.8-2.4.88-.85.09-1.76-.15-2.62-.31-.73-.16-1.47-.4-2.2-.58-.5.53-.81,1.12-1.31,1.38-1.34.72-2.75,1.34-4.18,2.03-.27-.46-.41-.9-.75-1.15-.92-.64-1.21-1.34-1.01-2.53.27-1.57-.76-2.22-3.28-2.26.41.88.78,1.62,1.33,2.71-1.84-.38-2.83.66-3.99,1.72,1.69.3,1.88,2.15,3.18,3.03,1.23.81,2.02,2.32,3.08,3.69-1.27.58-.62,1.52-.27,2.75-1.21-.46-2.08-.66-2.88-1.07-1.05-.51-2.11-.76-3.28-.65-2.33.21-4.41-.65-6.51-1.55-.62-.32-1.25-.75-1.87-1.1q-1.71-.98-2.48-2.66c-.53.18-1.06.4-1.23.45-3-1.58-5.77-3.01-8.45-4.43-.27-.17-.76-.23-.88-.46-1.06-2.42-4.11-2.88-5.16-5.34-.1-.26-.46-.41-.75-.68-.48.93-.79,1.62-.13,2.6.41.65.29,1.68.35,2.53.06,1.57.31,1.73,1.79,1.17,1.34,1.19,2.71,2.36,3.94,3.65.43.42.62,1.13.86,1.56,1.56.56,2.99,1.09,4.8,1.75,1.81,2.64,1.95,3.16,1.24,4.15.4,1.36,2.38,2.17,1.46,3.84.65.72,1.21,1.36,1.82,1.94.27.33.63.65,1.06.8,1.12.39,1.81,1.06,1.65,2.31-.18.96,1.06,1.73.2,2.78-.58.7-.96,1.59-1.25,2.14.08,1.15.13,2.02.19,2.92,0,.18.02.44.17.53,1.11.83.86,2.16,1.27,3.23.53,1.44,1.06,2.85,1.57,4.29.24.69.41,1.44.73,2.58-.79-.38-1.12-.53-1.46-.7-.46-.2-.88-.55-1.34-.58-2.31-.16-4.55-.55-6.57-1.86-.77-.48-1.92-.48-2.56-1.04-.6-.53-.6-1.59-1.05-2.31-1.7-2.65-2.65-5.57-3.01-8.66-.98-1.05-1.85-2.21-3-3.07-.65-.48-1.25-.88-1.63-1.64-.12-.36-.32-.77-.62-.96-1.54-.94-2.04-2.53-2.83-4-1.06-2.04-2.4-3.96-3.28-6.05-.75-1.7-1.71-3.22-2.62-4.81-1.09-1.98-2.4-3.82-4.38-5.04-.68-.42-1.21-1.05-1.81-1.55-.54-.42-.75-.88-.75-1.69.02-1.44-.4-2.84-1.56-3.96-.66-.64-1.08-1.46-.58-2.48.13-.27.05-.66.05-.98-.13-2.08-.76-4.18.41-6.17.04-.13-.06-.41-.18-.55-.6-1.02.06-1.6.81-2.29.58.21,1.17.43,1.92.71-.25.49-.43.86-.6,1.2,2.62.94,5.14,1.6,7.78,1.6.06-.24.09-.44.13-.68-.81-.14-1.58-.28-2.4-.41-2.24-2.4-4.9-4.15-8.46-3.81-1.39.1-1.94-.99-2.83-1.59-.76.14-1.12.53-.71,1.24.56.96.27,1.64-.33,2.5-1.1,1.5-1.6,3.09-.6,4.99.35.74.35,1.92.06,2.71-.79,2.15.48,3.51,1.59,4.99.35.47.83.86,1.35,1.16,1.24.8,1.58,2.12,1.85,3.41.24.96-.46,1.8-1.55,2.05-1.03.27-1.93,1.16-3.13.8-1.09-1.6-2.09-3.34-3.74-4.45-.46-.29-1.06-.75-1.06-1.12-.05-1.6-1.46-2.24-2.05-3.45-.27-.58-.43-1.2-.7-1.78-.18-.4-.36-.88-.66-1.15-.84-.64-1.74-1.19-2.58-1.79-.53.21-1.06.41-1.58.61.67.35,1.4.25,1.94.53.7.39,1.64.99,1.82,1.69.35,1.46,2.33,2.36,1.46,4.23-.11.21.13.64.29.88.94,1.16,1.95,2.31,2.86,3.48,1.06,1.3,2.4,2.05,4.05,2.31,1.12,1.86,2.89,2.82,5.06,2.64.11-.45.22-.94.35-1.37.94.1,1.74.15,2.6.28,1.06.19,1.71.86,2.12,1.87.4.88.92,1.73,1.46,2.54,1.54,2.29,3.08,4.53,3.3,7.43.08.99.66,2.1,1.35,2.83,1.71,1.7,3.59,3.29,5.56,4.76,1.06.85,1.7,1.69,1.74,3.09.05.93.58,1.81.96,2.92-.03.06-.25.27-.44.52-.91,1.27-.94,2.18-.08,3.46,1,1.47,2.02,2.92,2.86,4.71-.4-.18-1-.27-1.25-.59-1.73-2.12-3.64-4.22-4.53-6.87-.37-1.14-1.01-1.89-1.76-2.68-.54-.65-1.11-1.36-1.37-2.13-.37-1.19-1.27-1.57-2.22-1.99-1.29-.56-2.52-1.15-4.02-1.86-1.14.48-2.33.24-3.35-1.12-.31-.46-1.06-.65-1.71-.76,1.25,1.86,2.66,3.26,5.12,3.6,1.73.23,3.24,1.43,4.42,2.82.79.96,1.41,2.02,2.14,3.09-.29.98-.94,1-1.67.53-.6-.41-1.18-.88-1.67-1.41-.73-.75-1.47-1.06-2.5-.72.05,2.07.68,2.66,3.56,3.24-1.01,2.59-1.06,2.63-3.51,1.52-.92-.44-1.79-1.1-2.66-1.68-.44-.27-.79-.85-1.27-.94-1.79-.34-2.83-1.68-3.89-2.92-1.17-1.35-2.66-1.84-4.38-2.01-.56,0-1.18-.1-1.72-.31-1.41-.56-1.94-1.81-1.54-3.38.06-.24,0-.53-.09-.75-.33-.71-.66-1.47-1.1-2.12-.79-1.14-2.06-2.03-2.12-3.65,0-.14-.22-.27-.35-.41-.25.64-.46,1.22-.75,1.98-1.17-1.32-1.77-2.65-2.05-4.2-.22-1.66-.24-1.66-1.78-2.4.04.42.24.96.08,1.1-1.06.88-.41,1.57.19,2.3,1.64,1.88,2.78,4.18,4.65,5.92.66.55.98,1.56,1.29,2.43.84,2.32,2.33,3.94,4.75,4.75,1.47.49,2.46,1.76,3.25,3.06.58.96,1.19,1.6,2.37,1.79,2.81.5,4.79,2.1,5.82,4.84.23.65.77,1.25,1.3,1.73,1.67,1.52,2.93,3.33,4.32,5.5-1.49-.07-2.72-.15-3.89-.18-1.19-.03-2.4,0-3.56,0-.4,0-.81.03-1.12-.17-.6-.32-.96-.26-1.6.06-.75.37-1.76.28-2.5.37-1.08-.96-.62-1.96-.5-3.22-.66.38-1.12.64-1.79,1.02.2.59.27,1.36.68,1.7,1.11.94,2.37,1.62,3.52,2.51.96.74,1.81,1.7,3.03,2.07.27.08.5.46.62.76.81,1.89.81,1.92,2.56,2.71.75.34,1.18.85,1.14,1.86-.76-.58-1.46-1.09-2.2-1.62-.65,1.54-.42,2,1.89,3.62-.62.07-1.01.14-1.47.19-.05.38-.05.76-.2,1.14-.35,1.1-1.21,1.55-2.4,1.41-1.16-.14-2.3-.42-3.54.18.77.97,2.68.41,2.68,2.32-.41,0-.88.14-1.24-.03-1.27-.45-2.48-.89-3.6-1.56-.62-.38-.96-1.2-1.37-1.75-.64-.08-1.34-.14-2.06-.21-.27.95-.23,1.83.7,2.57-.46-.07-.92-.18-1.39-.28,0,.14-.08.28,0,.37.69.76,1.34,1.62,2.11,2.31,2.14,1.83,3.74,4.02,4.95,6.57-2.02-1.28-4.31-2.4-5.64-4.37-.83-1.14-1.81-2-2.85-2.56-2.88-1.56-4.76-4.12-6.87-6.51-.1-.14-.33-.22-.64-.49.08.49.1.76.2,1.39-.96-.75-1.77-1.29-2.44-1.95-5.28-5.26-10.58-10.48-15.68-15.88-1.89-2-3.33-4.42-4.93-6.71-1.06-1.57-2-3.22-2.6-5.05-.37-1.06-.52-1.1-2.18-1.46v1.37c-.27-.07-.46-.1-.58-.2-3.64-3.04-6.38-6.89-9.35-10.54-14.35-17.82-26.99-36.79-37.95-56.86-10.51-19.23-19.33-39.26-26.48-60.02-6.01-17.5-10.76-35.35-14.2-53.56-1.98-10.27-3.52-20.61-4.58-31.06-.75-7.11-1.54-14.2-1.54-21.39,0-.62-.27-1.26-.37-1.9v-37.08c.1-.59.37-1.24.37-1.89.05-7.27.71-14.54,1.65-21.76,1.1-8.82,2.22-17.6,3.7-26.37,2.44-14.39,5.96-28.55,10.03-42.59,1.44-4.95,3.62-9.61,5.28-14.47.05-.18.15-.32.35-.63-.66,3.08-1.34,5.99-1.87,8.91-.6,2.95-1.51,5.83-1.6,9.14,1.59-1.87,1.6-4.32,3.81-5.87-.06.77-.06,1.21-.15,1.62-.46,1.96-1.08,3.96-1.39,5.95-.4,2.04-.54,4.06-.64,6.14-.05.96-.05,2.09.43,2.85,1.19,1.73,1.19,3.59,1.14,5.49v5.74c.54.13,1,.19,1.67.32-1.01-2.04.05-3.83,1.06-5.25.96-1.32,1.82-3.57,4.3-2.77,1.44-1.3,2.12-2.83,2.31-4.84.2-2.47,1.69-4.52,3.3-6.42.2-.25.79-.25.88-.51,1.25-3.17,2.86-6.21,4.6-9.16.96-1.53,1.79-3.06,2.95-4.42.2-.25.46-.59.46-.88.08-3.21,3.66-4.16,4.41-6.97,0-.06.11-.06.18-.11,1.95-.92,2.29-2.7,2.43-4.61.06-.51.13-1,.22-1.49.23-1.59.69-3.13.69-4.68,0-1.8.24-3.44,1.03-5.02,1.19-2.41,2.02-4.91,2.2-7.58.06-.36.13-.77.29-1.15.21-.47.4-1.13.77-1.28.79-.3.79-.97,1.12-1.55,1-1.71,1.31-3.83,2.81-5.36.97-1,1.7-2.32,2.45-3.55.44-.68.71-1.46,1.65-1.49,1.41,1.78,1.39,1.78,1.46,3.76.02,2.65.1,5.31.13,7.92,0,1.3.24,2.47.88,3.62.37.66.48,1.53.54,2.29.1,2.25.06,4.48.2,6.7.04,1,.31,2,.53,2.97.22.94.4,1.91.64,2.87.53,2.3.75,4.59.54,7.04-.15,2.11.58,4.23.38,6.44-.18,2,.29,4.04.41,6.03.06.53-.1,1.04-.15,1.57-.22,1.64-.65,3.26-.54,4.88.05,1.3.7,2.53-.05,3.83-.19.19,0,.61.09.9.32,1.17.43,2.3-.63,3.31.48.15.75.23,1.21.36.27-1.28,1.04-2.29.75-3.67-.1-.54.19-1.15.33-1.71.44-1.91,2.11-2.87,3.23-4.23.89-1.08,1.03-.96,2.3-.17,2.5,1.49,3.6,4.17,5.26,6.35.2.25.06.72.08,1.17-2.2-.92-3.79.13-5.18,3.26.68-.19,1.49-.27,2.06-.63,1.23-.74,2.08-.15,3.11.43,1.34.77,1.34,2,1.31,3.26.57.15,1.3-.7,1.69.34.06.17.46.18.71.23,1.92.38,2.06.43,2,2.21-.13,1.8.53,2.88,2.27,3.27,0,.51-.03.94,0,1.3.19,1.66.76,2.06,2.37,1.47,2-.72,4.31-.79,6.16-2.09.11-.06.29-.09.42-.02,1.66.66,3.13.06,4.64-.61.2-.09.53-.06.79-.09,1.67-.21,3.38-.49,4.97-.96,1.81-.49,2.88-.06,3.72.79.89-.13,1.47-.29,2.11-.29,1.71.04,3.35,1.12,5.12.17.08-.07.27-.07.35,0,.98.9,2.12.41,3.23.41,1.41-.04,2.88.13,4.45.21.54,2.14,1.06,4.17,1.6,6.25.4,1.55,1.91,2.34,3.3,1.55,1.67-.94,3.25-2.06,4.85-3.1.46-.32.91-.7,1.29-.96.92.43,1.65,1.1,2.41,1.12,2,.06,3.76.74,5.54,1.42.79.29,1.51.87,2.06,1.49.3.4.17,1.17.24,1.73,1.39.4,2.77,1.02,4.18,1.15,1.64.18,2.7.83,3.24,2.41.27.87.58,1.7.9,2.57,1.29-.07.45,1.26.97,1.53.84.45.66,1.21.9,1.87.15.49.48.94.7,1.42.4.83.84,1.66,1.17,2.5.41,1.15,1.05,1.47,2.24.96.29-.13.6-.29.62-.29,1.17.32,2.11.58,3.04.83.2-.51.46-1.06.73-1.82,1.12.94,1.74,2.23,3.36,1.83-.13-.41-.25-.79-.33-1.15-.04-.4,0-.83-.17-1.15-.81-2-.86-2,1.12-2.68.18-.07.33-.18.57-.3-2.41-3.04-3.54-6.63-4.55-10.26-.92-.09-1.62-.15-2.31-.19-.4-1.6-1.14-3.02-2.41-3.8-1.12-.68-1.49-1.6-1.74-2.68-.22-1.08-.76-2.16.13-3.08-1.23-2.16-2.41-4.16-3.74-6.42-.33,1.55.17,3.17-.83,4.42-.05,0,0,.13.04.17.66,1.36-.33,2.06-1.03,2.87-1.73-1.4-1.7-1.36-1.06-3.27.17-.43.06-1.04-.15-1.46-.55-1.02-.6-2.09-.06-3.04.52-.94.52-1.82,0-2.63-.65-.7-1.3-1.4-2.14-2.32-.46.11-1.37.09-1.92.51-1.25.97-2.55.94-4,.76-1-.15-2.11-.49-3.08.17-1.7,1.08-3.89,1.76-4.05,4.29-.03.19-.11.41-.2.58-1.42,1.8-2.69,3.74-4.29,5.42-1.08,1.08-1.74,2.29-2.29,3.64-.1.27-.2.59-.33.9-.41-2.21-.79-4.41-.62-6.53.17-2.63-1.06-4.66-2.22-6.66-.6-.99-1.52-1.91-2.91-1.76-1.6.15-3.18.27-4.84.4-.98-2.79-2.31-5.15-4.76-6.8.75-1.89,1.41-3.76,2.3-5.51,1-1.93,2.27-3.74,3.39-5.59.1-.15.27-.29.43-.49.36.13.69.27,1.02.41.85-1.53,1.69-3.02,2.51-4.5.06-.19,0-.49-.02-.74-.19-1.21-.38-2.43-.54-3.74,1.01-.3,2.02-.61,3.01-.96,1.73-.58,2.73-1.73,3.03-3.53.18-.85.6-1.59.88-2.41h2.58c1.27-.09,2.6-1.19,2.4-2.38-.36-1.74.78-2.5,1.66-3.65,1.46.41,2.65,0,3.87-.85,1.3-.83,2.52-1.83,4.25-2,2.3-.15,4.09-2.07,4.37-4.41.13-.88.46-1.4,1.25-1.82,2.04-1.04,3.59-2.77,6.05-3.24,1.98-.38,3.72-1.71,5.57-2.5,1.34-.54,2.52-1.23,3.35-2.41,1.23-1.8,2.88-2.61,5-2.16,2.98-3.69,6.88-4.74,11.4-4.14.15-.21.37-.36.53-.61,1.38-3.08,4.53-3.59,7.17-4.74.76-.36,1.85-.11,2.79-.02.27.02.66.43.64.63-.1,1.71,2.08,2.97.96,4.88-.06.07.02.41.17.53,1.06,1.13.54,2.52.62,3.8.06.65.06,1.46.44,1.83,1.41,1.46,1.34,3.04.94,4.8-.19.79-.31,1.73-.15,2.52.33,1.21.89,2.32,1.35,3.53.4,1.08.83,2.14,1.36,3.51,1.34,1.4,3.6,2.49,4,5.13.05.21.23.51.41.63.92.54,1.17,1.42,1.37,2.34.33,1.89,1.12,3.49,2.75,4.63.27.15.53.47.73.7.53.7,1.1,1.28,2.16,1.13.35-.04.92.4,1.19.81,1.41,2.11,3.23,3.96,3.62,6.7.22,1.46.71,2.77.05,4.25-.53,1.12-.25,2.29.6,3.27.3.38.52.88.68,1.38.92,2.53,1.1,5.53,4.37,6.53.44.09.68.56,1,.83.58-.27,1.06-.47,1.56-.7.2.51.33.99.54,1.38.46.72,1.15,1.34.53,2.29.86,1.76.79,4.05,2.73,5.31.29.19.56.53.73.83.79,1.59,1.39,3.26,2.29,4.72,1.49,2.36,3.21,4.55,4.8,6.8.83,1.24,1.81,2.29,3.54,2.09.15,0,.33.19.6.32-.54,1.78-.77,3.59-.58,5.46.65-1.53,1.79-2.91,1.37-4.64-.36-1.74.54-2.7,1.76-3.82,4.2,3.69,7.13,8.26,10.18,12.87.19-.59.36-1.19.13-1.68-.54-1.36-1.21-2.74-1.94-4.06-.97-1.8-2.2-3.44-4.04-4.53-.25-.17-.53-.45-.56-.76-.23-.96-.19-1.96-.54-2.87-.38-.83-1.55-1.13-1.75-2.29-.27-1.6-.64-3.24-1.29-4.76-1.06-2.49-2.18-4.95-3.56-7.23-1.73-2.81-3.68-5.44-5.54-8.1,1.12-1.04,1.41-2.38.96-3.8-.33-.87-.6-1.74-.96-2.76-1.06-.53-2.66-.36-3.45-1.74-2.31-.87-3.65-2.41-3.59-5,0-.59-.48-1.23-.64-1.87-.16-.47-.23-.97-.28-1.47-.06-.7.06-1.4-.06-2.07-.36-1.83-.84-3.62-1.22-5.46-.08-.34.06-.72.21-1.08.64-1.68-.21-3.83-1.75-4.66-.91-.51-1.82-.87-2.45-1.91-.46-.79-1.71-1.06-2.52-1.71-.4-.29-.53-.9-.79-1.36-1.58-3.13-2.32-6.48-2.64-9.92-.06-1.13-.6-1.82-1.54-2.18,0-.94.79-1.96-.71-2.38v2.55c-.66-.63-1.16-.87-1.34-1.28-.68-1.74-.64-1.76-2.32-1.68-.33.02-.66.06-.66.06-.73-.66-1.21-1.42-1.83-1.57-1.35-.3-1.95-1.3-2.5-2.36-.56-1.12-1.35-1.93-2.58-2.23-.78-.23-1.03-.77-1.38-1.53-.51-1.13-1.44-2.12-2.18-3.17-1.44.29-1.71-.97-2.22-1.76-1.11-1.71-1.06-1.78.22-3.53-.4-.96-.6-2.04-1.12-2.87-.85-1.24-2-2.32-2.97-3.53-.73-.92-1.57-1-2.62-.59-1.65.63-3.11,1.55-4.41,2.65-.4.36-1.02.66-1.52.63-2.2-.19-4.29-.07-6.11,1.51-.23.19-.58.3-.82.53-.83.66-1.78.88-2.78.65-.77-.13-1.29-.04-1.87.45-.9.77-1.92,1.08-3.25.92-.96-.15-2.24,0-3.1.94-.25.3-.71.59-1.12.68-2.04.38-3.78,1.19-4.88,3.08-.94-.21-1.73-.41-2.43-.56.33-1.13.68-1.98.89-2.85.13-.66,0-1.44.18-2.11.5-1.98.97-3.94,1.69-5.85,1.24-3.36,2.88-6.52,5.51-9.02.19-.21.51-.47.46-.63-.31-1.42.83-2.16,1.41-3.13.77-1.32,1.98-2.49,2.44-3.85.65-2.29,2.11-4.12,3.38-5.95,2.53-3.72,5.41-7.23,8.53-10.48,2.88-2.91,6.01-5.65,9.42-7.94,2.81-1.91,5.53-3.82,7.84-6.34,1.19-1.26,2.41-2.49,3.64-3.69.4-.36.81-.66,1.23-.97.64-.45,1.33-.83,1.84-1.38,2.98-3.13,5.82-6.37,8.8-9.47.85-.87,2.02-1.42,3.08-2.07,1.03-.66,2.35-1.02,2.3-2.63-.04-.19.19-.51.36-.65.97-.66,1.43-1.64,2.04-2.63.73-1.26,1.54-2.61,2.66-3.46,2.18-1.62,2.85-4.1,4.04-6.25.73-1.24.4-1.83-.79-2.91-.56-.49-1.12-.99-1.69-1.53,1.94-1.89,2.48-2.16,1.41-4.36.42-.34.86-.76,1.12-.99-.33-2.3-.6-4.44-.92-6.55-1.27-.63-2.48-1.21-3.84-1.87.41-.83.53-1.62.97-2,1.27-.96,1.27-2.19,1.22-3.57,0-.43,0-.94.15-1.35.66-2.4,1.36-4.77,2.06-7.18-.65-.43-.88-.88-.45-1.66.56-1.06,1.45-1.82,2.16-2.76,1.27-1.82,2.93-3.51,4.78-4.66,2.77-1.8,5.74-3.27,8.82-4.53,2.18-.92,4.12-2.34,6.09-3.62,2.06-1.36,3.92-3.1,6.27-4.04.5-.19,1.01-.41,1.34-.85,1.12-1.32,2.7-1.7,4.07-2.19.25-.76.48-1.42.66-1.91-.31-.66-.58-1.17-.77-1.73-.5-1.35.9-2.97-.5-4.27.29-.81,0-1.83.88-2.53.46-.34,1.03-1.02.96-1.42-.37-1.66.77-2.29,1.81-2.87,1.57-.81,3.21-1.64,4.88-2.12,3.12-.87,5.97-2.16,8.62-4,.05-.07.05-.25.11-.45-.38-.17-.79-.34-1.23-.53,1.04-1.62,2.06-3.23,3.11-4.8.17-.27.4-.54.62-.79,1.36-1.34,3.03-2.23,4.8-3.08,1.21-.58,2.33-1.44,3.45-2.25,2.29-1.55,4.45-3.4,6.87-4.74,4.07-2.21,8.26-4.23,12.48-6.16,1.72-.79,3.64-1.3,5.49-1.62,1.45-.27,2.88-.09,4.11-1.17.31-.27,1-.17,1.52-.25.46-.04.92-.11,1.34-.18.76-.11,1.54-.32,2.3-.4,2.88-.27,5.79-.51,8.67-.72.22-.04.48-.21.75-.29,1.81-.3,3.62-.58,5.43-.96,1.47-.29,3.06-.17,4.33-1.19h3.97c1.19.79,2.33,1.57,4.2.27-.41.92-.62,1.35-.88,1.87.6.59,1.23,1.17,2,1.87-.41.13-.68.27-.96.36-1.27.36-1.77,1.51-.73,2.27,2.06,1.49,2.93,3.65,4.04,5.78.48.96,1.62,1.62,2.53,2.34.92.61,1.98,1.08,2.93,1.66.73.45,1.49.87,1.34,1.98-.06.4.58.85.7,1.34.4,1.3.66,2.63,1,3.96.15.63.2,1.42.65,1.83,1.43,1.36,1.54,3.36,1.06,4.82-.65,1.78.29,2.45,1.14,3.49,1.39,1.71,2.64,3.47,3.91,5.23.57.81,1.02,1.71,1.52,2.59,1.16,1.87,2.53,3.57,4.55,4.61.4.21.73.54,1.17.87-.21,2.57-.4,5.17-.65,7.76,0,.27-.08.58-.27.72-1.37,1.34-1.79,3.17-2.4,4.89-.7,1.96-1.36,3.94-3.39,5.06-.12.06-.27.13-.3.23-.23,1.62-1.81,1.76-2.86,2.57-1.6,1.34-3.45,2.66-3.06,5.19.19,1.08.73,2.16,1.21,3.21.98,2,2.05,3.96,2.98,5.78-.6,1.17-1.12,2.11-1.62,3.13,1.18,1.08,1.45,2.41,1.41,3.82-.06,1.04.4,1.73,1.23,2.34.96.72,1.95,1.53,2.02,2.79,0,.65-.06.96.54,1.4.53.34.86,1.17.96,1.85.41,2.5,1.64,4.4,3.68,5.85.91.63,1.66,1.49,2.5,2.23.18.19.35.4.6.47,2.18.74,3.47,2.72,5.47,3.74.27.13.31.7.52,1.28,2.12.18,2.17,2.5,3.54,4-.98-.17-1.73-.29-2.48-.45-.06.13-.1.25-.15.38.35.29.73.79,1.14.83,2.3.29,2.66,2.19,3.58,3.82-.88.09-1.6.21-2.41.3-.13,1.49-.29,2.87-.43,4.42-.76-.27-1.39-.49-2.48-.83.81,1.17,1.01,2.06.88,3.1-.06.45.62.99,1.14,1.74-.36.56-.91,1.28-1.37,2.04-.58.97-1.11,1.96-1.62,2.95-.1.23-.25.58-.12.76.5.88.12,1.68-.25,2.45-.35.76-.29,1.36.19,2.04.73.92,1.16,1.93.52,3.1-.12.25.19.74.31,1.15,1.06-.09,2.08-1.17,3-.02.6.77,1.02,1.68,1.58,2.55.73.11,1.56.23,2.4.38.19.04.41.13.56.07,1.97-1,4.09-.72,6.16-.94,2.04-.21,4.06-.56,6.09-.68,2.6-.19,3.97.74,5,3.19.31.81.73,1.57,1,2.38.81,2.27,2.56,3.47,4.49,4.63,2.12,1.3,4.37,1.64,6.82,1.3,2.33-.3,4.66-.3,6.97-.54.81-.09,1.69-.38,2.39-.83,1.14-.74,2.4-1.13,3.72-1.26,1.92-.19,3.76-.58,5.3-1.89,1.11-.94,2.43-1.23,3.84-1.42,1.58-.21,3.08-.76,4.64-1.19.46-.13,1-.56,1.46-.49,1.82.36,3.6.79,5.35,1.36.58.21.96,1,1.5,1.68,1.01-.92,2.14-.92,3.33-.25.44.25,1.12.25,1.56.09,1.67-.76,3.35-.63,5.08-.63.73,0,1.46-.04,2.18,0,2.37.21,4.55-.27,6.7-1.46,1.21-.66,2.66-.96,4.04-1.36.27-.09.56-.04.79.04,2.18.79,4.37,1.55,6.51,2.41,1.37.59,2.73,1.34,4.04,2.11.73.43,1.27,1.13,1.95,1.68.66.51,1.39,1,2.17,1.42,2.4,1.21,4.14,3.24,6.16,4.97.2.19.41.53.69.56,1.71.25,3.1,1.21,4.55,1.96.5.27,1.14.32,1.56.49.38.56.58,1.17,1.01,1.49,2.14,1.64,3.04,4.14,4.45,6.29.5.76.23,2,.36,3,.02.41.12.92.39,1.19,1.09,1.13,2.15,2.21,3.47,3.15,1.23.85,2.4,1.42,3.72,2.02.65.3,1.23,1.28,1.37,2.06.39,2.12,1.27,3.12,3.47,3.42.22,0,.39,0,.65.04.31.85.6,1.71.91,2.61-.65.21-1.27.43-1.94.63.06.09.06.21.08.27.88-.06,1.79-.19,2.7-.15.83.13,1.62.45,2.45.76.56.19,1.31.19,1.27,1.23,0,.27.6.59.98.83.5.36,1.29.43,1.23,1.47-.46.17-.94.38-1.54.61.43,1.15,1.46.76,2.25,1,.1.63.17,1.3.38,1.93.23.74.48,1.4-.54,1.78-.17.09-.41.72-.33.83.83.88.29,2.29,1.41,3.15,1.27.94,2.29,2.21,3.47,3.42-1.24,1.55-2.48,2.93-3.58,4.41-.4.54-.85,1.32-.78,1.94.27,2.81-.5,5.44-1.56,7.95-1.41,3.29-.75,6.5.1,9.67.27.99.98,1.85,1.37,2.59-.25.81-.65,1.47-.71,2.18-.1.85-.02,1.73.04,2.57.02,1.38.25,1.53,1.75,1.96.39.13.68.63,1.06.76.31.13.71-.09,1.06-.17.08.21.17.36.17.47-.1,1.98-.23,4.02-.36,6.01-.08.99-.29,1.87-1.47,2.29-.41.17-.66.92-.88,1.49-.31.63-.33,1.42-1.12,1.74-.12.06-.27.19-.27.27.4,2.19-1.92,3.44-1.87,5.59.06,1.28-.89,2.23-2.12,2.89-1.6.87-2.93,2.02-3.1,4.08-.04.76-.66,1.44-.94,2.16-.5,1.19-1.58,2.21-1.12,3.7.08.25-.31.7-.54.97-1.16,1.32-2.46,2.45-4.12,3.06-.66.25-1.33.59-2.16.94.06,1.82-.86,3.26-1.92,4.74-1.34,1.82-2.88,2.87-5.08,2.89-1.69.06-3.08.68-4.14,2.02-.81,1.02-1.83,1.73-3.08,2.09-.79.21-1.52.58-1.77,1.47-.56,2-2.02,3.4-3.46,4.79-1.23,1.19-1.69,2.45-.69,4.04.19.32.31.83.21,1.12-.58,1.23-.15,2.34.27,3.42.48,1.28.45,2.49-.81,3.4-.38.29-.65.65-.94,1.04-2.18,2.52-2.3,1.57-1.5,4.99.18.72.1,1.21-.46,1.8-1.79,1.7-3.87,2.91-6.01,4.06-2.3,1.3-4.74,2.47-6.76,4.12-1.64,1.34-3.28,2.97-3.49,5.36-.02.13-.06.25-.1.38-1.04,2-1.87,4.06-1.81,6.39-1.12.27-2.08.49-3.06.74-.5-1.91-2.02-2.97-3.39-4.06-.58-.43-1.85-.51-2.63-.21-1.31.53-2.48.43-3.82.19-1.46-.3-2.93-.18-3.87,1.12-.25-.13-.35-.13-.38-.17-1.52-3.06-4.37-2.36-6.78-2.09-1.11.13-2.08,1.49-3.12,2.29-.52.41-1.04,1.04-1.64,1.26-1.67.63-3.23,1.74-5.11.9-.19.19-.43.3-.46.47-.33,1.74-1.54,2.32-3.18,2.68-1.24.23-2.43,1.02-3.58,1.7-.78.43-1.52.66-2.41.4-.52-.17-1.18-.11-1.77.04-1.27.29-2.5.9-3.86.47-.27-.07-.71.06-.92.27-.66.58-1.37.77-2.2.53-.25-.07-.62-.13-.75,0-1.29,1.42-3,.72-4.53.85-.66.04-1.31-.04-1.97,0-.96.04-1.87.04-2.39-.99-.4-.66-1.02-.59-1.6-.43-1.5.45-3,.94-4.47,1.46-.31.13-.5.59-.75.9-.63.79-1.5.87-2.18.18-1.59-1.59-2.37-1.59-4.02.09-.12,0-.31.07-.39,0-1.67-1.26-3.46-1.42-5.43-.88-.83.21-1.71.09-2.72.15-1.21,1.87-3.04,2.55-5.37,2.16-.65-.11-1.39.29-1.97.43-.68-1.49-1.29-2.87-2.08-4.44-1.31,1.06-2.39,1.96-3.66,2.97-.13-.61-.4-1.13-.27-1.32.89-1.28.81-3.04,2.1-4.1.96-.83.9-1.82-.08-2.66-.2-.17-.41-.32-.62-.49-.65-.56-1.67-1.02-1.83-1.71-.3-1.38-.2-2.88-.2-4.34,0-.17.16-.38.27-.45,1.32-1.21,2.56-2.5,3.94-3.55,1.83-1.46,1.92-2.12.27-3.78-.5-.54-1.01-1.04-1.6-1.46-.54-.45-1.17-.74-1.89-1.17-.38.3-.83.63-1.36,1.1-.34-1.71-1.59-2.23-2.94-2.66-.6-.21-1.35-.38-1.78-.81-1.27-1.26-2.79-1.36-4.41-1.38-2.05-.02-4.09-.18-6.18-.27-1.43-.06-2.75-.04-4.05-1.15-.66-.59-2.12-.43-3.25-.47-1.29-.06-2.33-.45-2.9-1.66-.18-.29-.38-.63-.36-.9.25-1.51-.54-2.68-1.18-3.93-1.01-2-2.4-2.76-4.71-2.38-1.54.25-2.95.13-4.41-.63-1.23-.61-2.52-1.15-3.83-1.66-1.69-.66-3.14-1.62-4.37-3.02-1.12-1.35-2.86-1.55-4.47-1.96-.2-.06-.58-.06-.73.07-2.1,1.44-4.37,2.74-4.78,5.55-.06.45.2,1,.35,1.47.29.72.73,1.42.96,2.19.44,1.85.18,3.47-1.01,5.19-1.39,2.07-3.12,3.08-5.47,3.46-1.01.15-1.91.74-2.92.9-.76.18-1.57.07-2.36,0-1.33-.13-2.62-.17-3.86-.49-1.57-.34-2.91-1.89-3.65-3.87-2.18-.23-4.51-.47-6.8-.76h-.58c-2.84-.13-3.01-.25-3.87-2.79-3.54-.25-7.08-.54-10.61-.83-.96-.06-1.94,0-2.76-.79-.5-.4-1.49-.04-2.18-.29-.66-.21-1.16-.77-1.78-1.15-.06-.06-.29-.02-.4.04-1.67.83-2.91-.09-4.1-1.13-.96-.79-1.87-.81-2.92-.3-1.17.54-2.66.59-3.11,2.16-.06.21-.4.43-.56.49-1.49.07-2.62,1.4-4.18,1.12-.35-.09-.83.11-1.16.29-1.74,1.13-3.36.34-5.2-.18.23-.47.41-.83.6-1.19-.79-.61-1.51-1.12-2.41-1.78.19.72.31,1.34.53,2.19-.68-.29-1.14-.58-1.6-.66-.54-.13-1.21-.25-1.67,0-1.27.68-2.53.68-3.84.3-1.98-.51-3.46-.06-4.53,1.82-.86,1.49-2.25,2.7-2.83,4.29-.55,1.49-.31,3.29-.46,5.04-.6.18-1.46.23-1.34,1.24.15,1.62-.71,2.91-1.6,4.17-.79,1.06-1.12,2.21-1,3.55.02.97.2,2.02-.92,2.59-.13.06-.2.25-.2.34.41,1.57-.4,3.24.25,4.82.33.7.68,1.4.96,2.16.27.61.44,1.15-.2,1.78-.96.94.27,1.68.48,2.55-.15,1.23-2.55,1.8-1.23,3.78.41-.32.89-.54,1.23-.9.79-1.02,1.71-1.06,2.84-.58.89.41,1.84.68,2.81.99,1.33-1.15,2.88-1.98,3.51-3.74.06-.23.46-.43.75-.51,1.98-.45,4-.85,5.95-1.32,1.67-.38,3.04.25,3.79,1.55,1.36,2.29,3.56,2.85,5.82,3.26,1.1.18,2.24.21,3.33.32.17-1.32.27-2.53.37-3.91,3.06-.09,5.99-2.14,8.99.27.11.56.19,1.17.28,1.83.62.11,1.29.07,1.71.34,1.34.81,2.43.9,3.36-.53.11-.15.36-.27.54-.27.46.17.94.53,1.42.54.58.02,1.12-.27,1.71-.34.19,0,.4.29.71.53-.92,1.35-3.12.07-3.65,2,1.39.72,3-.87,4.6.32-.48.36-.86.63-1.35.99.94.99,1.87,1.96,2.78,2.87-1.18,2.12-1.05,2.59.9,3.19.75.25,1.29,1.28,2.3.76.09-.06.73.63.73.99.03.97-.15,1.94-.3,3.15-.6-.63-1.02-1.12-1.5-1.59-1.06.53-.58,1.3-.43,2.06-.54.44-1.12.87-1.96,1.5h1.67c.09.56.15,1.09.33,1.55.15.42.46.8.88,1.57-.58.32-1.16.61-1.76.91.13.18.19.33.27.53,1.43-.14,2.83-.25,4.3-.39.06,1.35.13,2.55.19,3.79,0,.19,0,.44-.13.55-1.21,1.07-2.22,2.51-3.99,2.8-.46.08-.98-.16-1.46-.31-.38-.1-.88-.53-1.04-.41-1.27.98-2.66.38-3.99.32-1.39-.05-2.76-.18-4.14-.24-.23-.03-.38.08-.79.19.29.24.53.4.68.56.73.58.73,1.12-.06,1.43-.86.35-1.74.46-2.66.64-.27.06-.58-.03-1,.14,1.79.48,3.66.78,3.83,3.14-.86.86-1.9.88-2.98.8-1.24-.1-2.57-.56-3.64-.19-1,.36-1.71.17-2.58-.12-.88-.27-1.81-.32-2.68-.48-1.01-.17-1.49.42-1.81,1.23-1.08,2.44-2.88,3.78-5.59,4.02-.75.06-1.56.38-2.24.74-1.73,1.05-3.54,1.39-5.52,1.21-.91-.11-1.87-.26-2.78-.26-.6,0-1.21.23-1.81.41-.41.14-.79.4-1.25.65-.31-.65-.5-1.23-.86-1.69-1.35-1.89-1.78-1.99-3.78-.86-.75.4-1.3.29-1.73-.37-.41-.66-.68-1.44-1.21-2.06-.27-.34-1.04-.71-1.23-.57-1.02.71-1.82.18-2.56-.36-2.11-1.57-4.84-1.57-7.12-2.79-.4-.21-1.17,0-1.65.27-1.87,1.02-3.82,1.33-5.81.76-2.95-.85-5.18.32-7.45,1.99-1.67,1.21-1.98,2.71-1.76,4.5.12.99.33,1.99.54,2.95.43,1.9,1.01,3.68,2.97,4.59.38.16.58.69.92,1.03.27.27.54.75.86.75,1.64.06,2.99.8,4.3,1.71,1.52,1.12,3.33,1.99,4.44,3.44,1.25,1.6,2.73,2.93,4.35,3.96,1.37.86,2.91,1.84,4.71,1.84,1.08.02,1.73.58,1.97,1.6.36,1.25,1.3,1.8,2.46,2.07.27.08.58.16.86.22-.46.84-.84,1.59-1.19,2.3-.15,0-.31.02-.4-.06-.62-.56-1.25-1.36-2.18-.7-.75.51-.48,1.26-.52,2.06-.03,1.03-.63,2.36-1.46,2.95-.6.42-1.01.93-1.6,1.3,1.23.99,3.12,1,3.28,3-1.16.1-2.22.2-3.49.34.41.65.66,1.06.88,1.41-1.08,1.54-3.43,1.57-4.25,3.96,1.83-.4,3.25-.76,4.71-.95,1.43-.22,2.9-.25,4.42-.36,2.6-3.19,6.84-4.58,10.51-4.39.13-1.58.5-2.13,1.79-2.71.3.82-1.21,1.24-.6,2.12,1.36-1.06,2.66-2.05,3.89-3.02.56.34.96.58,1.06.64,1.03-.26,1.81-.5,2.81-.8-.66-.82-1.46-.79-2.12-.86-.73-.07-1.21-.34-1.65-.93-.66-.9-.96-2.29-2.55-2.16-.1,0-.2-.55-.43-.82-.6-.84-1.34-1.54-2.75-1.4.54.76.97,1.35,1.41,1.91-.05.06-.13.12-.18.14-.68-.57-1.36-1.2-2.1-1.86-.86.94-1.77,1.2-2.71.41-1.14,1.32-1.51,1.44-3.56,1.12.44-3.67.23-3.42,3.81-3.27.15,0,.27-.02.4.03.94.24,1.67-.14,2.27-.86.65-.74,1.27-1.51,2.5-1.14.27.1.73-.26,1.04-.5.94-.61,1.82-1.28,2.76-1.94q1.46-1.04,2.98-.14c.29.22.62.46.94.7-.2.42-.42.76-.53,1.13-.54,2.18.58,3.73,2.85,3.91.73.09,1.48.21,2.25.35-.86,2.37-2.81,3.03-4.68,3.59.44.88.77,1.58,1.12,2.21.48,0,1.06-.16,1.46.05,1.16.58,2.24.42,3.47.26.88-.1,1.82.49,2.78.76-.04,1.43,1.37,1.47,2.14,2.16q-1.87,1.06-1.08,2.16c.54-.38,1.08-.76,1.6-1.1.33.26.62.5.86.7,1.24-.63,2.4-1.2,3.35-1.72.17-.76.13-1.46.43-1.86,1.06-1.46,2.2-2.89,3.41-4.22.38-.36,1.06-.36,1.71-.53-.33-2.06-1.12-4.18.29-6.13,1.4-.3,2.22.66,3.11,1.26.32-1,.6-1.95.91-2.88.05-.24.05-.51.05-.74-.02-2.24-.11-4.47-.11-6.71.03-1.06.58-1.62,1.73-1.79,1.34-.16,2.14-1.12,1.94-2.29-.22-1.52.27-2.55,1.39-3.46.15-.17.2-.45.33-.75-1.77-1.52-3.08-3.23-3.26-5.67-.06-1.1-.79-2.03-2.06-2.42-.94-.27-1.79-.83-2.7-1.23-.73-.31-.86-.9-.88-1.6Zm-114.21,28c1.37.93,1.71,2.38,2.06,3.51.23.73,0,1.97-1.16,2.66-1.3.76-2.55.51-3.82.62-.92.06-1.65.06-2.31-.79-.62-.83-1.1-.63-1.85.46,2.12,1.06,2.4,1.98,1.17,4.15.22.55.6,1.11.6,1.63-.05.53-.46,1.05-.71,1.55.46.88.63,1.75.79,2.61.06.24.22.44.4.65,1.25,1.56,3.35,1.4,4.82-.42.75.5,1.54.89,2.25,1.46.76.66,2.39.99,3.21.42,1.33-.89,2.76-1.62,3.76-2.92,1.01-1.28,2.46-1.04,3.94-1.09.2-1.02.39-2.02.6-3.12.89.35,1.54.99,2.32.38-.35-.8-1.69-.75-1.45-1.94.64.2,1.23.4,1.91.6.09-.66.11-1.12.13-1.52,1.27-.26,2.52-.5,3.79-.76.7-2.39,1.49-4.89,2.18-7.43.2-.84.53-1.92-.41-2.55-.79-.53-1.7-.84-2.62-1.3-.15-.64-.13-1.43-.5-1.98-.31-.46-1.06-.65-1.9-1.1.27-.46.6-1.02.96-1.63-.38-.88-.86-1.86-1.25-2.88-.57-1.35-1.04-2.71-1.62-4.05-1.06-2.6-3.26-4.29-5.24-6.15-.88-.86-1.54-1.79-1.89-2.99-.2-.66-.56-1.33-.98-1.88-1-1.23-2.04-2.37-3.14-3.68-1.64.22-2.43-.15-3.12-1.64.41-.08.88-.14,1.34-.19,1.91-.24,2.57-.94,2.68-2.79.13-2.24.25-4.47.4-6.68,0-.32.24-.65.37-.97.13.03.2.03.29.06.12.66.3,1.35.45,2.1.84-.45.71-1,.58-1.62-.1-.85-.3-1.71-.25-2.53,0-1.1-.06-2.13-.6-3.08-.15-.34-.24-.77-.27-1.15-.3-3.64-.35-3.57-3.86-3.94-1.12-.13-2.5-.07-3.31-1.23-2.12-2.97-6.29-4.38-9.82-3.35-1.89.56-3.84.96-5.76,1.38-.27.06-.79-.13-.79-.21-.06-1-.94-.7-1.24-.58-.4.15-.79.74-.86,1.17-.05.59.11,1.32.35,1.91,1.3,3.08,1.77,6.34,1.9,9.66.04,1-.27,2.08.85,2.88.86.6,1.19,1.91,2.53,1.96.27,0,.51.59.73.9-.35.19-.68.44-1.06.5-.48.08-1-.02-1.47-.06-.15.99.53,1.12.92,1.53.33.33.35.98.54,1.51.62-.38,1.73.72,2.25-.68.45.5,1.08.9,1.21,1.37.3,1.69.64,3.41.52,5.11-.12,2.26.54,4.13,1.81,5.85,1.39,1.86,1.92,3.85,1.34,6.15-.2.92-.27,1.92-.35,2.78,1.47.39,2.7.66,4.2,1.05.5,1.1,1.27,2.26,3.16,1.94-.31,2.13.81,3.6,1.87,5,1.06,1.35,1.52,3.35,3.7,3.55.25.03.63.66.58.9-.15.32-.56.68-.92.78-.58.17-1.18.09-1.81.11-1.03,0-2.03,0-3.09,0Zm13.56-95.77c-1.59-1.44-3.87-2.25-5.87-1.98,2.24.69,3.57,2.45,5.87,1.98Zm-63.37,294.59c-.13.14-.27.3-.4.46,1.21.88,2.43,1.75,3.64,2.65.11-.14.19-.25.27-.36-1.16-.91-2.33-1.83-3.51-2.75Z"/>
  <path class="cls-1" d="m867.81,516.29c-.65,1.96-.65,3.98-.69,6.06-.18,5.61-.45,11.23-.85,16.87-.65,9.98-1.7,19.91-3.33,29.78-1.56,9.47-3.39,18.93-5.4,28.32-2.37,11.14-5.49,22.13-9.05,33-4.6,14.26-9.9,28.28-16.28,41.86-3.84,8.15-8.03,16.15-12.12,24.19-.6,1.25-1.46,2.36-2.17,3.56-2,3.38-3.94,6.76-5.93,10.15-2.08,3.54-4.17,7.09-6.26,10.6-.17.28-.4.5-.89.6.52-1.01.98-2.08,1.56-3.04.69-1.19,1.39-2.44,2.35-3.43.91-.96.31-2.32,1.12-3.22-.91-.41-.43-1.07-.23-1.6.28-.69.6-1.35.89-2,.38-.65.81-1.22,1.12-1.88,1.01-1.93,1.99-3.87,3-5.83.1-.27.05-.61-.23-1.06-.43.76-1,1.52-1.26,2.32-.56,1.63-1.04,3.26-2.7,4.14-.31.16-.43.64-.66.99-1.21,1.76-2.33,3.63-3.6,5.36-1.35,1.81-1.95,3.99-3.14,5.85-.73,1.1-1.23,2.35-2.39,2.95-.6-.24-1.09-.42-1.69-.66.36-.74,1.52-1.52.02-2.48.48-.61.83-1.14,1.24-1.68.41-.5.63-.96.79-1.69.31-1.67,1.54-2.84,3.24-3.3.6-2.44,1.81-4.54,2.33-6.99.35-1.53,1.18-3.23,2.72-4.24.41-.29.58-.88.91-1.27,1.62-2.03,3.29-4.02,4.98-5.99.29-.31.88-.41,1.35-.65.1.3.27.65.39,1.02.27-.14.53-.19.58-.32.23-.32.56-.7.56-1.03.08-2.67,2.08-4.37,3.3-6.44,2.33-4.1,4.37-8.39,6.88-12.4.53-.75.73-1.71,1.81-1.94.31-.08.53-.73.76-1.1.48-.88.96-1.75,1.44-2.61.53-1.04,1.12-2.03,1.5-3.14.46-1.28,1.35-2.39,2-3.62.73-1.38,1.39-2.82,2.1-4.23,3.66-7.73,6.8-15.67,9.42-23.84.41-1.3.48-2.68.81-4.02.66-2.66,1.37-5.27,2.06-7.87-.96-.73-1.39-1.69-1.47-2.81-.06-.65-.06-1.32.02-1.96.12-1.14.06-2.2-.46-3.27-.38-.78-.41-1.76-.58-2.71-.96.12-1.93.22-3.13.36.29-1.2.52-2.13.76-3.06.75-3,1.35-6.06,2.22-9.04.65-2.18,1.21-4.31.83-6.61-.1-.58.33-1.24.54-2.02-1.23-.65-1.12-1.86-.91-3.12.13-.66.48-1.38-.33-2.18-.25.49-.41.85-.66,1.19-.31.42-.15,1.26-1.02,1.26-.12.02-.38.24-.39.37-.31,1.94-1.56,3.62-1.34,5.76.15,1.23-.25,2.57-.5,3.84-.33,1.68-.88,3.33-1.19,5.01-.27,1.62-.41,3.26-.54,4.92-.04,1.03-.35,1.76-1.12,2.58-2.48,2.66-4.87,5.41-6.32,8.81-.33.82-.86,1-1.79,1,.73,1.86,0,3.45-.41,5.09-.63,2.71-1.02,5.49-1.42,8.23-.1.61.17,1.31.36,1.92.41,1.36.36,2.64-.31,3.85-.73,1.34-1.54,2.61-2.33,3.94-.15.32-.2.76-.41,1.06-.31.61-.65,1.28-1.09,1.79-.78.93-1.29,1.8-1.35,3.11-.04,1.44-.98,2.85-.98,4.29,0,2.56-1.87,4.23-2.6,6.41-.19.59-.38,1.23-.33,1.85.19,2.19-1.79,5.91-3.82,6.94-.15.06-.28.06-.54.07-.52-1.33-1.93-1.23-2.87-1.06-.96.19-1.77,1.26-2.76,2.05-.29-1.19-1.16-2.06-.76-3.46.17-.61-.25-1.44-.52-2.15-.27-.76-.4-1.26.41-1.86.89-.65.71-1.36-.35-1.62-.76-.19-1.58-.14-2.5-.19.13-.37.36-.93.56-1.46-.06-.06-.17-.1-.25-.17-.39.53-.78,1.06-1.29,1.79-.17-1.96,1.47-2.96,1.81-4.4.38-1.55.81-2.99,1.81-4.21.86-.29,1.64,1.04,2.66.08-.96-.38-1.81-.7-2.88-1.07.19-.74.29-1.38.52-1.96.28-.82.69-1.44.4-2.52-.27-.87.15-2.38,1.34-3.07.41-.43,1.47-.24,1.34-1.41-1.12-.06-1.31.61-1.31,1.47-.25-.06-.48-.19-.73-.17-.96.14-1.34-.29-1.35-1.22-.05-1-.19-2.03-.31-3.41-1.58,1.68-3.33,2.56-3.99,4.47-.19.5-.58.92-1.44,1.1-.73.17-1.58,1.34-1.81,2.25-.2.67-.4,1.27-.86,1.85-.48.65-1.11,1.32-.94,2.27.05.29-.17.66-.4.88-1.85,1.97-2.8,4.47-3.86,6.87,0,.06-.06.12-.19.22-.65-.22-.58-.7-.48-1.23.35-1.75.73-3.48,1.04-5.23.04-.29-.23-.64-.23-.96,0-.66.13-1.36.23-2.29-.04-.11-.38-.48-.43-.9-.15-1.15.33-2.32-.19-3.52-.27-.72.88-1.81,1.92-2.05.2-.05.41-.18.56-.34.1-.06.06-.25.06-.58-.89.36-1.69.72-2.68,1.16.13-1.4.89-2.24,1.92-3.09-.62.03-1.04.08-1.62.1.17-.56.25-.96.33-1.34-.33-.14-.76-.26-1.09-.4.06-.85.13-1.59.21-2.42.48-.27,1.06-.58,1.76-.96-.56-.58-1.82-.61-1.16-1.78.1-.15-.6-.7-.98-1.12.96-1.35,1.59-3,3.51-3.51-.15-.86-.27-1.92-.41-3.06-1.81.19-.41-1.46-1.23-2.24-.45-.18-1.16-.48-2.08-.84.38-1.18.76-2.45,1.16-3.7-.89-.61-1.08.55-1.7.58-.23-.36-.48-.72-.79-1.2.4-.56.79-1.14,1.19-1.73-.02-.07-.06-.14-.13-.18-.73.53-1.41,1.06-2.39,1.78.12-.85.2-1.41.33-2.27-.94.27-1.66.46-2.41.66-.58-.68-1.16-1.4-1.89-2.3,2.06-1.12,4.09-2.27,6.22-3.41-.08-.29-.33-.72-.21-.88.4-.47.83-1.09,1.39-1.23,2.06-.66,2.41-.99,3.01-3.15.13-.5.65-.89.86-1.59-.33.17-.86.27-.96.53-.58,1.62-2.45,1.89-3.31,3.24-.85,1.34-2.06,2.31-3.39,3.28-.98.65-1.77.47-2.62.65q-.86-2.13.66-4.34c-1.14-.46-1.21,1.16-2.27,1-1.62-.41-1.27-2.39-2.35-3.59,1.94-.88,1.12-3.23,2.6-4.47-.52-.3-1-.58-1.41-.85.1-.62.88-1.04.2-1.64.66-1.11,1.16-2.35,2.08-3.29,1.06-1.12,2.43-1.96,3.72-2.98,1.12-.17,2.43-.24,3.72-.48.38-.08.89-.42,1.11-.76.6-1.07,1.14-2.18,1.69-3.31.15-.2.27-.47.46-.56,1.64-.65,2.12-2.41,3.72-3.39,1.31.4,2.76.2,4.02-1.08.29-.31.81-.5,1.11.19.04.12.38.18.58.2.78.14,1.72,0,2.35.4.56.35.98,0,1.23.08,1.7.46,3.3-1.14,5,0,.29.19,1.06-.29,1.6-.46.29.28.65.54.88.76.76-1.01,1.34-2.03,2.12-2.85.91-.99,1.21-2.18,1.46-3.41.15-.74.31-1.44,1.12-1.71,1.85-.64,3.04-2.15,3.97-3.67,1.54-2.45,2.78-5.09,4.16-7.63-.1-.08-.23-.17-.38-.24-.38.58-.86,1.14-1.12,1.78-2.12,4.47-5.78,7.12-10.28,8.87-1.81.67-3.82-.91-3.58-2.88.13-1.04.33-2.08,1.23-2.85.76-.72,1.41-1.54,2.14-2.36.6.45,1,.76,1.46,1.11.48-.18.89-.4,1.37-.57-1.15-.35-1.87-.97-2.02-2.16q-1.06.99-2.35,1.12c.33-1,.5-1.99.96-2.82,1.18-2.2.2-4.5.18-6.73,0-.55-1.06-1.14-1.72-1.81.08-.21.27-.61.54-1.2-1.27-.51-2.46-.99-3.79-1.55-.48.38-.96.76-1.34,1.07-.58-.56-1.23-.99-1.59-1.6-.33-.59-.31-1.35-.45-1.99,2.45-1.49,5-3.04,7.68-4.64.2.18.53.48.81.74.06-.03.15-.03.2-.06,1.37-2.5,2.76-4.99,4.09-7.34.4,0,.6-.03.65.03,1,1.62,1.74,3.28,1,5.26-.6,1.62-1,3.29-2.87,4.25-.76.41-1.92,1.23-1.77,2.59-.41-.41-.86-.76-1.31-1.19-.53.29-.96.56-1.75,1,1.31.05,2.17.1,3.06.18.65-.18,1.29-.08,1.99-.62,1.11-.79,2.48-1.4,4.1-1.11,0-.19.02-.36.02-.54-.15-2.37.85-3.35,3.26-3.81.76-.14,1.44-.86,2.08-1.38.41-.4.63-1.04,1.06-1.36,2.18-1.62,3.06-3.95,3.68-6.44.38-1.38-.06-2.85.81-4.2.25-.41-.29-1.34-.43-2.03-.06-.31-.06-.66-.12-1.1-.41.06-.73.12-1.12.17q.48-1.43,1.6-1.54c.13,0,.27.05.31.03.25-.56.43-1.05,1.29-.66.2.07.75-.83,1.23-1.08.58-.28,1.39-.15,1.9-.5,1.73-1.2,3.06-2.47,2.88-4.97-.15-2.86.65-5.65,1.75-8.52.4.52.73.94,1.04,1.35-1.19-3.91.35-7.43,1.27-11.05.52,1.65-.98,3.59.98,5.27,0-1.44.08-2.64-.04-3.83-.02-.58-.25-1.12.23-1.66.15-.13.15-.53.02-.68-1-1.51-.48-3.26-.68-4.88-.08-.53.43-1.17.71-1.74-1.11-.7-1.21-1.8-.81-3,.08-.3.58-.43,1.04-.76-.1-.7-.27-1.73-.43-2.91,1.59-.19,1.92-1.4,2.3-2.66.15-.66.31-1.28.89-1.87.53-.58.63-1.7.79-2.61.19-1.02.53-1.94,1.16-2.88,1.12-1.62,1.5-3.69,1.34-5.67-.4-4.48-1-8.95-1.54-13.41-.58-5.15-2.06-10.16-1.97-15.35,0-.38.08-.74.18-1.46,1.02,1.3,1.11,2.52,1.35,3.67.85,3.69,1.7,7.35,2.37,11.05.6,3.24,1,6.53,1.54,10.12.53-.38.73-.56,1.06-.79.73,1.62.27,4.04,3.04,4.44.53,7.74,1.14,15.45,1.64,23.17.2,3.78.2,7.56.41,11.34.02,1.02.43,2.02.65,3.06,0,3.94,0,7.92,0,11.93Zm-43.71,166.95q.56-.98.41-2.03c-.92.62-.54,1.36-.41,2.03Zm12.1-125.33c-.15-.08-.28-.16-.4-.25-.4.53-.79,1.07-1.14,1.6.35.11.54.02.62-.1.32-.41.61-.84.92-1.25Zm15.91-50.62c.15-.02.27-.06.4-.06,0-.39-.06-.76-.1-1.16-.08.02-.17.02-.29.02v1.2Z"/>
  <path class="cls-1" d="m594.73,851.44c-2.5,1-5.08,1.79-7.61,2.64-2.66.89-5.36,1.98-7.49,4.04-.23.22-.48.39-.91.67-.2-.57-.36-1.03-.58-1.73-.31.42-.52.73-.75,1.02-2.02-.29-3.06.26-4.47,2.26-1.12.3-2.1.59-3.1.87-.53.14-1,.33-1.54.4-2.5.28-5,.4-7.45-.26-1.44-.38-2.45-1.36-3.62-2.55.65-.4,1.11-.73,1.6-.97.71-.36,1.58-.48,2.18-.95,1.73-1.35,3.56-2.16,5.81-1.87.1,0,.29-.22.54-.41-.19-.51-.4-1.05-.54-1.56,1.12-.43,2.18-.96,3.33-1.27.81-.22,1.67-.29,2.52-.24,1.75.08,3.41,0,5.05-.7,1.32-.55,2.79-.65,4.52-1.01-2.43.06-4.52.03-6.59.24-.85.07-1.58.74-2.45.32-.31-.17-.56-.45-.83-.66,1.92-2.12,4.3-2.58,6.82-2.63.65-.03,1.37-.03,1.94.21,1.37.62,2.58.32,3.74-.49.68-.48,1.44-.93,2.16-1.37.05-.53.06-1.1.13-1.9-.88.4-1.62.74-2.39,1.06-1.34.56-2.66,1.17-4.06,1.6-1.04.34-2.04.16-3.1-.7,1.66-1.2,3.24-2.24,4.7-3.41,2.35-1.86,4.43-3.93,5.7-6.72.54-1.18,1.35-2.16,1.33-3.59,0-.54,1-1.1,1.71-1.81.33-1.2.38-2.9,2.46-3.44.35.34.78.76,1.23,1.12.65.48,1.19.14,1.52-.29.18-.17-.15-.8-.36-1.12-.76-1.03-1.62-2.02-2.93-2.5-.23-.1-.4-.45-.63-.69.4-.72.79-1.03,1.47-.53.31.24.56.56.89.76.62.45,1.12.27,1.27-.47.06-.49.06-.97.12-1.63-.45-.08-.91-.19-1.43-.26-.11-.4-.27-.83-.41-1.44-.71.5-1.29.93-1.97,1.44-.68-.17-1.5-.38-2.53-.63,1-2.02,1.92-3.82,2.88-5.81,1.24.98,2.76.92,3.97,1.98,1.12,1.04,2.58.61,3.82-.5.69-.66,1.5-1.24,2.35-1.73.38-.18.96-.02,1.58-.02-.56-1.46,1.24-2.75.43-4.1h-5.31c-.33-1.52-.6-1.14,3.29-2.27-1.71-.29-3.35-.37-4.2-2.05.13-.1.23-.24.38-.26.17-.06.4-.03.75-.06-.33-2.18.36-3.98,2.06-5.59.29.24.81.46.81.66,0,1.28,1.23.76,1.27.62.43-1.22,1.58-.69,2.83-1.01-.71-.34-1-.48-1.5-.73.23-.88.43-1.8.63-2.7-.83-.29-1.73-.61-2.83-1.02-.35.19-.85.46-1.34.73-.18-.14-.33-.27-.33-.3.46-.88-.54-1.94.36-2.76.65-.58,1.34-1.17,2.08-1.82.48.58.81.89,1.04,1.28.89,1.59,1.62,2,3.44,1.8.65-.04,1.27,0,2.12,0,.27-.71.65-1.7,1.87-1.92-.27-1.25.56-1.9,1.56-2.29-.5-.61-.92-1.12-1.39-1.72-.27.48-.5.88-.66,1.22-.91-.4-1.69-.96-2.52-1.06-.76-.07-1.6.32-2.65.56.71-1.7,1.31-3.09,1.97-4.78.66,0,1.54-.03,2.46,0,.68.02,1.23-.15,1.74-.65.89-.76,1.92-1.34,2.88-1.96.15-.1.41-.17.56-.09,1.21.54,2.5.97,3.56,1.69.96.66,1.79,1.62,1.02,3.02-.06.1.13.33.2.6,2.23.17.88-2.2,2.08-2.82.41.24.94.53,1.6.9-.1-.48-.19-.88-.25-1.31,1.64-.76,3.36-1.42,4.49-2.92,1.47.8,2.91,1.62,4.39,2.48.2-.8-.5-1-.94-1.41-.5-.45-.91-.99-1.44-1.52-.6.17-1.29.32-1.99.49-.58-.99-1.67-.88-2.86-1.05.33-.47.46-.88.73-1.02,1.21-.64,2.46-1.23,3.66-1.76.33-.1.76.14,1.12.24s.66.26,1.06.42c.5-1.14-.41-1.59-.69-2.31-1,.61-1.89,1.15-2.83,1.7-.79-.26-1.58-.53-2.4-.79-.18-1.84-.04-2.01,2.53-2.82.04-.3.04-.63.08-1.02-.19.07-.38.1-.53.16-.5.24-.94.48-1.44.7-.81.34-1.46.18-2.12-.49-.6-.6-1.52-.92-2.27-1.4-1-.68-2.02-1.45-3.18-2.26.78-.82,1.44-1.52,2.06-2.21-.04-.07-.08-.16-.15-.24-.56.41-1.12.76-1.67,1.18-.4-.19-.78-.41-1.37-.7.65-.6,1.19-1.15,1.81-1.76.05-.6.08-1.35.1-2.2-.76.8-1.47,1.54-2.25,2.29-.08-.06-.2-.13-.29-.22.06-.26.08-.6.27-.79.39-.44.75-.75.52-1.52-.17-.42.4-1.1.63-1.64-.13-.53-.54-1.21-.48-1.85.17-1.22.56-2.43.88-3.64.2-.69.94-.9,1.14-.41.46.89,1.06.23,1.74.43-.08,1.05-.18,2.11-.29,3.17.86-.65,1-1.44,1.04-2.3.08-1.6,1.39-2.29,2.78-1.44,1.46.9,2.85,1.91,3,3.88,0,.3.19.66.4.88.81.8.88,1.73.54,2.91,2.33-.69,2.43,1.49,3.44,2.43,1.23-.2,2.43-.4,3.77-.6.88,1.14,1.74,2.32,2.68,3.55.33-.62.6-1.18.88-1.65-.41-.51-.86-1.02-1.34-1.6.54-.37.86-.61,1.02-.76-2.1-.15-4.3-.28-6.49-.53-.92-.07-.92-.27-1.39-1.96.89-.83,1.87-1.55,3.14-1.9,1.23-.32,2.32-.92,3.53-1.3,1.37-.42,1.69-.26,2.65,1.12.13-.4.17-.82.38-1.06.27-.24.68-.31,1.12-.48-.73-.8-.65-1.38.31-2.02.91-.66,1.71-1.58,2.62-2.45-1.19-.96-2.45-.64-3.58-.32-1.47.4-2.83.32-4.27-.41,1.34-.53,2.66-.97,4-1.55,1.27-.62,2.98.29,4.16-1.04-1.37,0-2.68-.02-4.02,0-.08,0-.27,0-.35.08-1,1.32-2.63,1.1-4,1.41-.65.13-1.41.15-1.89.53-2.52,2.02-4.98.56-7.45-.08-.79-.19-1.67-.24-2.52-.16-1.25.14-2.46.41-3.84.66.6-1.23,1.27-1.9,2.48-2.03.73-.08,1.79-.02,1.31-1.35-.06-.08.25-.41.29-.39,1.18.46.71-1.08,1.54-1.22.18.16.45.38.85.72.43-.9.56-2.1,1.95-1.72.15.02.39-.46.62-.64.63-.46,1.25-.88,1.85-1.29.27-.16.71-.18.76-.37.35-.97,1-.94,1.74-.51.4-.75-.2-1.73.75-2.02.58-.17,1.16-.24,1.9-.38.18-1.18,1.18-1.66,2.37-2.29,1.62-.88,3.72-.53,5.13-2.01.33-.37,1.19-.23,1.83-.33,3.01-.51,5.66-1.95,8.17-3.71.06-.04.23-.07.46-.13.41.35.83.76,1.34,1.22.25-.13.66-.2.79-.43,1.26-2.35,3.79-1.58,5.7-2.25.2-.07.79.42.96.77.38.81.54,1.73.88,2.54.17.41.43.76.88,1.07.23-1.71-.31-3.23-.96-4.82.38-.55.76-1.16,1.14-1.78.05.05.1.14.17.2.73-.4,1.52-.74,2.2-1.23,1.67-1.16,2.98-2.63,3.97-4.44.27-.56.98-.9,1.41-1.35,1.44-1.3,2.52-2.73,3.35-4.46.17-.42,1-.54,1.85-.96.27-2.02,1.89-2.53,4.09-2.01.29-2.3,2.5-2.47,3.62-3.95.29.5.41.76.68,1.22.54-1.28,1.23-2.2,2.75-1.33v1.43c.08.03.2.06.27.06.19-.77.36-1.55.6-2.65.63.61,1.06,1.06,1.39,1.45.15,1.37-.91,1.91-1.54,2.74.5.32.98.61,1.69,1.06-.25-1.94,1.11-3.09,1.6-4.64.33.24.56.4.91.64-.06-.59-.12-1.04-.12-1.49,0-1.28.65-1.53,1.77-2.06,1.12-.5,2.32.11,3.26-.68.19-.11.53-.06.76,0,.94.27.94.3,1.89-.37-.96-1.07-.25-2.03.33-2.95.27-.42.73-.75,1.16-1.01.53-.29,1.04-.18,1.31.45.02.08.2.16.31.14.45-.06.89-.1,1.35-.17.38-.88.71-1.64.19-2.68-.33-.76-.08-1.82-.08-2.93,1.23-.26,2.45-.53,3.81-.82-.08-1.79-2.2-.56-2.66-1.8.36-1.11.73-2.3,1.19-3.76.66.37,1.21.64,1.72.98.53.38,1,.72,1.46-.17-.88-.45-1.73-.88-2.58-1.33.58-1.63,1.39-1.78,3.46-.65q1.11-1.1-.36-3.18c1,.37,1.67.57,2.33.82.06-.06.1-.14.17-.18-.48-.46-1-.88-1.5-1.3q1.16-1.12,2.79.4c-.19-.56-.4-1.15-.58-1.7-.6-.08-1.14-.14-1.79-.19,1.46-2.37,1.97-2.48,3.7-.9.53-1.17,1.21-2.1,2.86-1.34-.05-.2-.06-.41-.11-.61-.76-.26-1.54-.53-2.45-.86-.08-.56-.2-1.16-.29-1.96.66.1,1.12.17,1.6.24-1.14-2.69.2-5.77,2.65-6.29.08-.56-.04-1.17.27-1.49.21-.29.88-.24,1.19-.29-.13-1.04-.29-2.08-.46-3.44.75-.29,1.58-.61,2.33-.88-.19-.76-.6-1.68-.65-2.58-.02-1.3.83-1.73,1.95-1.1.52.26,1.06.53,1.81.51-.75-.88-1.5-1.73-2.3-2.68.36-.39.76-.77,1.18-1.26.98.72,2.53.27,3.04,1.79.53-.49,1-.94,1.73-1.61.27,1.08.46,1.82.62,2.59.31-.08.58-.14,1.06-.24-.02.46-.06.85-.15,1.52.68-1.09,1.46-1.45,2.65-1.04-.71.62-1.39,1.21-2.3,2h1.97c-.6.53-1.04.9-1.54,1.34.41.07.63.14.89.18q-1.85,1.79-1.06,3.21c.27-1.23.79-1.78,2.06-2.13,1.35-.38,2.69-1.22,4.07-1.78.31-.14.41-.66.69-.96.33-.45.78-.85,1.27-.32.18.18.06.85-.15,1.17-.2.34-.71.53-1.12.81.2.65.4,1.26.65,2.01.76-.16,1.47-.29,2.23-.42.5,1.36-.05,2.18-1.6,2.71,1.56.55,2.16-1.17,3.43-.65-.81,1.1-1.56,2.05-2.55,3.35.81-.26,1.24-.41,1.79-.6.31,1.36-1.56,1.14-1.46,2.4.5-.24.89-.45,1.46-.71,0,.28.1.6,0,.74-.6.8-.54,1.62-.1,2.42.15.26.48.42.96.79-.2,1.19-2.23,1.92-1.74,3.97.48-.05,1-.14,1.56-.21,0,.17.1.4.05.51-.28.45-.61.86-1.02,1.44.71-.1,1.21-.16,1.7-.24.33,1.48.13,2.53-1.5,2.93-.31.07-.58.57-.85.89,1.23,1.17,1.72-.85,2.81-.58.4,1.07-.79,1.21-1.09,1.84.79.53.79,1-.04,1.47-.73.4-1.47.76-2.2,1.13-.81-.15-1.31.18-1.81.91,1.06.31,1.39-.39,1.74-.96.27.02.54.07,1.19.16-1.02.88-1.83,1.54-2.73,2.3,0,.14.21.72.06.92-.85.78-1.04-.83-1.97-.53.48.78-.52,1.96.88,2.6.96-.61,1.52-1.64,2.79-2.03.91-.26,1.58-1.44,2.66-2.04-.48,2.39-1.01,4.81-1.47,7.23.25,0,.53.03.91.03-.06.2-.06.41-.18.54-.31.53-1.29.54-1,1.47-1.31-.29-1.54-.14-1.79,1.01-1.21.58-2.45,1.13-3.76,1.78.33.18.76.54.85.44.98-.71,1.94-1.51,2.86-2.29.62-.31,1.24-.64,1.85-.95.81.14.27.72.38,1.06.1.31.48.58.83.96-1,.66-1,1.64-.96,2.69h1.21c-.27.95-.54,1.8-.76,2.64-.96.2-1.81.4-2.66.59,0,.12-.06.23-.06.33.43.17.86.3,1.62.51-.96.61-2.02.65-2.15,1.73,0,.21-.81.32-1.16.51-.33.16-.56.41-1.12.83,1.14.1,1.92.15,2.88.24-.96,2.74-3.72,1.67-5.14,3.06.76.42,2.53.1,5.14-1-.33,1.47-.76,1.91-2.98,3.22-.17.88-.83,1.12-1.6,1.23-.6.07-1.44.44-1.83.18-1.18-.8-2.85-.32-3.91-1.49-.1-.1-.5,0-.71,0,.6.53,1.12,1.01,1.69,1.52-.69.56-1.21.94-1.69,1.3-.73-.13-1.12.09-.81,1.05.27-.35.5-.73.76-1.09,1.06-.3,1.24.28,1.06,1.3.52-.56.78-1.12,1.23-1.57.41-.56.94-1.18,1.79-.62.6.42,1.24.76,2,.24.62-.42,1.33-.75,1.97-1.19.15-.1,0-.56,0-.88.33.16.68.31,1.14.53-.94,1.16-1.81,2.26-2.76,3.41-.31-.06-.68-.14-1.16-.25.27.75.5,1.45.89,2.58-1.14-.69-1.95-1.1-2.91-1.06-.63.03-1.27-.03-1.9-.1-.83-.1-1.58-.29-2.78-.51.46.55.69.99,1.02,1.24.45.32.89.59.78,1.23-.94.08-1.34.64-1.54,1.7.73-.19,1.25-.32,1.85-.48-.17-.53-.25-.9-.38-1.26.56-.14,1.15-.2,1.7-.41.76-.28,1.27-.17,1.7.64-.78,1.14-1.87,1.81-3.2,2.1-.66.17-1.34.29-1.87.65-.53.31-1.27.98-1.21,1.37.27,1.55-.98,2.35-1.37,4.07-.61-1.62-1.42-2.02-2.88-1.34.58.17.91.24,1.39.38-.45.29-.81.5-1.44.9.76.14,1.37.24,2.3.4-1.12,1.01-2.04,1.87-2.97,2.69.1.08.27.24.48.4-.69.77-1.41,1.55-2.23,2.44.06.17.15.54.23.8h5.31c-.06,2.59,1.89,1.55,3.08,1.93.17,1,.35,2.02.54,3.14-.98.92-2.08,1.54-3.62,1.06-.43-.14-.89.03-1.35.03h-2.22c-.54-3.41-.56-3.46-2.7-2.68.41.13.83.26,1.56.5-.88.48-1.25.7-1.73.93.43.59.75,1.07,1.27,1.82-.63.07-.96.1-1.54.18.58.49,1.01.88,1.52,1.3-.04.54-.98,1.41.6,1.47-.45.6-.85,1.12-1.31,1.76.43.18.73.31,1.31.57-.94.73-1.81,1.36-2.7,2,1.92,1.25,3.19,1.15,4.47-.31.1-.14.38-.27.38-.38-.22-1.62,1.16-1.88,2.1-2.53.66-.48,1.31-.8,1.62.34.04.14.45.14.68.18.33,2.24-1.74,2.55-2.88,3.73.73.66.56,1.23-.19,1.88-.83.72-1.64,1.57-2.66,2.58.75.08,1.12.14,1.49.16-.04.87-.54,1.07-1.21,1.1-1.14.06-1.74.62-2.16,1.71-.36.95-1,1.8-1.6,2.89.81.18,1.41.32,2.08.45-.89.88-1.74,1.7-2.7,2.57,1.08,1.05.5,2.38.04,2.91-1.12,1.16-1.21,2.56-1.58,4.12.6-.24,1.12-.44,2.04-.82-1.52,1.46-2.73,2.65-4.06,3.89,1.06.95,1.27,2.07.52,3.24.38.55.69,1.04.96,1.44-1.16,1.54-2.27,3-3.37,4.53.4.46.79.88,1.19,1.3.43-.14.78-.24,1.18-.34.58.64,1.12,1.28,1.58,1.79.73-.08,1.39-.35,1.97-.18,1.29.34,2.18-.17,2.96-1.07.6-.65,1.12-1.3,2.22-1.03,1.06.24,1.73-.53,2.23-1.34.6.31,1.12.6,1.79.98.71-.98,1.35-1.91,2.04-2.88h1.41c.98.97.92,2.34-.08,3.06-.91.66-1.87,1.25-3.1,2.08.71,0,1.09-.08,1.46.02.31.08.65.39,1,.62-.43,2.12-2.27,3.08-4.02,3.88-1.27.56-2.65.88-3.35,2.29,1.18.9.29,2.55,1.35,3.78-2.08,1.68-3.97,3.41-6.14,4.88-2.2,1.54-4.65,2.7-6.84,4.31-1.52,1.1-3.04,2.12-4.75,2.84-.89.38-1.83.62-2.7.99-.52.18-1.01.4-1.39.75-2.04,1.77-4,3.62-6.04,5.37-.65.56-1.47.88-2.3,1.38,1.06,1.36,2.04-.2,3.39.06-1.27,1.12-2.29,2.13-3.46,2.95-2.02,1.44-4.2,2.72-6.3,4.13-.69.48-1.27,1.17-2,1.6-1.41.9-2.93,1.7-4.42,2.5-.27.14-.63.06-.96.1-.48.1-1.14.14-1.44.46-1.54,1.54-3.7,2.26-5.05,4.07-1.24,1.59-2.93,2.64-4.82,3.37-.08.03-.23-.05-.36-.14,0-.02.06-.18.13-.28.27-.59.53-1.17.79-1.73-.53-.14-.96-.03-1.16.23-.6.61.04,1.04.38,1.5-.48.18-1.21.26-1.37.6-.88,1.75-2.6,2.15-4.18,2.79-1.74.69-3.58,1.2-5.28,2-.88.41-1.56,1.02-2.62,1.21-.88.17-1.67.97-2.5,1.47-.31.19-.71.28-1.29.13,1.24-1.26,2.45-2.53,3.72-3.79-.06-.08-.15-.16-.19-.23-.56.4-1.14.76-1.81,1.2-.46-.46-.85-.92-1.06-1.12-1.21.46-2.16.96-3.2,1.16-1.56.35-2.18,1.52-2.91,2.69-.89,1.42-1.79,2.88-3.62,3.38-.62.16-1.37.48-1.74-.33-.29-.67-.71-1.53.06-2.16.88-.74.96-1.64.86-2.79-1.02-.15-1.98-.04-2.76.59-.81.65-1.6.76-2.58.43-.41-.16-.94,0-1.52.19,1.52.76,1.52,1.93,1.11,3.23-.12.45-.1.95-.2,1.38-.65,2.42-1.58,3.18-4.09,2.92-.88-.09-1.54-.04-2.06.76-.19.26-.43.49-.73.63-2.22,1.03-2.5,1.27-3.23,2.76-1.5.66-2.83,1.1-3.97,1.81-1.41.87-2.88.32-4.32.57-.25.06-.6-.45-.92-.73-.27,1.4-1.37.8-2.3.99-.25,1.12-1.23,1.36-2.22,1.54-.86.16-1.54.48-2.2,1.09-1.31,1.12-2.58,2.55-4.64,1.91-.13,0-.27.06-.4.14-2.76,1.98-6.06,1.85-9.23,2.28-2.3.31-4.64.33-6.9.71-2.08.33-4.07.32-6.37-.38,1.79-.74,3.35-1.28,5.06-1.5,1.66-.25,3.36-.42,5.05-.65,0-.14-.02-.28-.06-.41-1.41,0-2.88-.2-4.3.06-2.04.38-4.04,1.04-6.06,1.64-1.18.36-1.34.29-1.71-1.3,1.34-.4,2.68-.8,4.24-1.25-.36-.19-.63-.52-.88-.47-.75.14-1.6.25-2.3.6-2.41,1.27-4.88.64-7.36.3-.76-.1-1.54-.41-2.4-.65.19-.82.83-1.31,1.52-1.58,3.62-1.35,7.15-2.7,11-3.12,2.12-.22,4.2-.99,6.36-1.33,1.87-.31,3.84-.24,5.72-.55,2.3-.39,4.55-1,6.7-2.07,2.14-1.06,4.45-1.69,6.68-2.52.56-.19,1.18-.33,1.62-.69.33-.23.4-.76.71-1.47-10.67,4.78-16.3,6.29-23.71,6.34.56-1,1.23-1.66,2.25-1.96,1.08-.3,2.18-.58,3.24-.88.6-.15,1.18-.33,1.12-1.17-1.64.4-3.21.81-4.8,1.13-1.19.25-2.43.2-3.68.47-1.39.29-2.12,1.05-2.69,2.06-.45.78-.96,1.14-1.82,1.22-1.32.1-2.58.3-4.02.47.1-1.21.54-1.96,1.43-2.58,1.12-.76,2.12-1.77,3.24-2.53.73-.53,1.67-.79,2.5-1.18,1.67-.8,3.33-1.57,4.95-2.47.43-.24.63-.9.91-1.37.73-.33,1.46-.66,2.17-1,.88-.46,1.74-.9,2.6-1.35-1.31-.3-2.12.25-2.53,1.37-1.07-.38-1.55.47-2.19,1.01Zm12.35,14.15c-1.23-.08-2.39-.54-3.31.53-.17.2-.62.12-.96.2-1.77.54-3.51,1.1-5.28,1.63.06.13.12.26.18.4.58-.18,1.16-.35,1.74-.58,1.83-.69,2.89-.79,4.75-.46.27.04.86-.17.86-.33.18-1.12,1.17-1.02,2.02-1.38Zm118.84-66.32c-1.16.21-2.12.37-3.13.53-.44.53-.96,1.12-1.56,1.83,1.6.19,2.45-1.76,3.91-.82.27-.54.48-.94.78-1.55Zm-96.65,60.4c-.38-.59-.86-1-.92-1.46-.04-.56.27-1.15.4-1.73-.19-.06-.33-.12-.52-.18-.4,1.02-.81,2.05-1.35,3.36h2.4Zm-23.58-57.51c.76.8.54,2.42,2.04,2.63-.1-.66-.17-1.23-.27-1.86-.58-.26-1.19-.5-1.77-.76Zm6.47,61.96q-1.29-.51-3.23,1.13c1.27-.45,2.18-.77,3.23-1.13Zm-2.43-64.17c-.25-.53-.36-1.13-.66-1.35-.43-.27-1.12-.32-1.39.15.68.41,1.26.75,2.06,1.2Zm-7.61,46.5c-.6.51-1.21,1.04-1.79,1.55.1.14.2.27.31.4.6-.55,1.7-.45,1.47-1.94Zm133.27-179.02s-.1-.1-.15-.16c-.4.34-.75.72-1.12,1.06.11.11.19.19.28.29.33-.4.68-.79,1-1.2Zm-100,112.01c-.1-.16-.2-.32-.31-.49-.41.3-.85.62-1.47,1.08.96.18,1.64.29,1.79-.59Zm108.25-70.36c1.29.05,1.87-.52,2.18-1.38-.65.4-1.24.8-2.18,1.38Zm-3.72,3.64c-.96.41-1.56.65-2.08.88.86.46,1.38.07,2.08-.88Zm-16.45,38.16c-.89-.58-1.37-.53-1.77.24.23.17.46.32.54.29.35-.1.71-.29,1.23-.53Zm-76.46,2.72c1.14.7,1.64.31,2.17-.37-.66.1-1.23.2-2.17.37Zm-21.42,32.75c-.15.12-.31.22-.48.32.27.32.53.66.81.99,0,0,.25-.21.39-.29-.22-.36-.5-.7-.72-1.02Zm116.01-85.42c.02.07.06.17.13.24.41-.24.86-.44,1.27-.69-.06-.11-.13-.21-.2-.31-.39.27-.8.5-1.2.76Zm3.06,5.17c.66.78,1.06.68,1.58-.09-.58.03-.93.06-1.58.09Zm-21.5,46.49c-.06-.11-.08-.21-.1-.32-.29.14-.6.24-.88.38,0,.03.06.2.13.32.26-.14.57-.26.85-.38Zm-91.6,21.22c0-.14,0-.27-.02-.41-.33.03-.66.08-1,.14v.27c.34,0,.67,0,1.01,0Zm-13.8,11.58c-.05.14-.1.29-.17.42.43.14.91.26,1.39.37,0,0,.08-.16.19-.35-.5-.15-.91-.31-1.42-.44Z"/>
  <path class="cls-1" d="m836.61,365.77c-.53,1.71-.41,2.87,0,4.12.31.96.23,2.04.33,3.12-1.12-.11-2.1-.49-2.73-.17-.56.32-.78,1.34-1.18,2.07-1.83-1.35-1.95-1.82-.88-3.8-.33-.77-.69-1.57-1.08-2.3-.65,0-1.27-.06-1.92,0-.68.04-1.27.09-1.81-.45-.85-.81-2.22-.97-2.5-2.38-.15-.79-.46-1.55-.69-2.3-.27-.83-.75-1.35-1.72-1.35-1.52.02-2.52-.83-3.41-2.02-.56-.74-1.35-1.34-2-1.98-2.52,1.85-4.47,1.53-6.53-.59.56-.09,1.06-.17,1.54-.25-.43-1.44-1.54-2.32-2.6-3.27-.58-.59-1.12-1.12-1.73-1.64-1.24-1.15-2.22-2.36-1.34-4.21-.31-.13-.56-.3-.78-.3-2.35-.09-3.41-1.96-4.7-3.51-.52-.66-.91-1.44-1.47-2.07-1.37-1.47-2.55-3.06-2.35-5.38-1.83.58-2.23-.87-3.01-1.73-.81-.94-1.59-1.89-2.4-2.88-.91-.51-1.94-1.08-2.98-1.49-.65-.27-1.35-.29-2.06-.43-1.85-.36-3.58-.88-4.45-2.77-.06-.11-.17-.32-.21-.32-1.29,0-1.82-1.3-2.81-1.7-1.72-.66-2.81-2.02-3.79-3.4-.88-1.34-2.02-2.32-3.14-3.4-.65-.63-1.11-1.66-1.33-2.57-.61-2.12-1.73-3.87-3.1-5.53-.81-.92-1.79-1.78-1.85-3.17-.02-.25-.33-.54-.56-.76-1.59-1.36-1.85-2.59-.83-4.44.25-.51.5-1.08.76-1.6.5-.17,1-.32,1.56-.49,0-.58,0-1.1.1-1.59.06-.45.33-.83.54-1.34h-1.31c-.02-.58-.08-1.06-.13-1.57-.63.41-1.16.81-2.02,1.38-.05.18-.15.68-.28,1.44-2.48-.97-4.78-1.91-7.1-2.83-.08-1.34-.06-2.41.36-3.59.56-1.59,2.23-.29,2.81-1.51-.5-.07-.98-.15-1.56-.19-.08-.47-.2-.96-.31-1.51-.04.18-.02.38-.1.53-.27.53-.48,1.34-.98,1.53-.88.34-1.35.9-1.52,1.83-.15.92-.78,1.06-1.46.66-2.7-1.6-5.47-3.13-8.07-4.91-.98-.66-1.7-1.57-3.08-1.71-.56-.07-1.23-.9-1.56-1.55-.58-1.1-.94-2.27-1.46-3.62-.73.15-1.79.3-3.23.59.04,0-.33-.17-.63-.41-1.44-1.12-3-1.82-4.76-2.3-1.06-.3-2.18-.59-3.12-1.47-.6-.54-1.72-.79-2.6-.77-1.77.11-2.91-.88-4.22-1.68-1.02-.63-2.08-1.19-3.06-1.83-.52-.29-1-.66-1.41-1.06-1.16-1.19-2.25-2.43-3.44-3.62-.75-.72-1.64-1.34-2.45-1.98-1.35-1-2.7-2.09-4.06-3.02-.53-.38-1.19-.74-1.73-.74-1.37.02-2.4-.77-3.46-1.34-.53-.23-.96-.77-1.23-1.26-.79-1.4-1.47-2.81-2.18-4.25-.41-.88-.81-1.71-1.69-2.32-.65-.53-1.29-1.42-.41-2.41.15-.18.23-.53.17-.72-.94-2.32-.08-4.19,1.39-5.94.22-.23.43-.47.65-.76.98-1.28,2.04-2.45,3.7-2.65.22-1.55.41-2.97.66-4.42.17-1.12.88-1.49,2.79-1.64-.06.38-.13.74-.25,1.38.41-.34.81-.56.76-.7-.23-1.28.17-2.83-1.11-3.87-.45-3.24-2.85-5.76-3.24-9.02-.12-1.08-.45-2.14-.73-3.47,1.54-1.73-.21-3.24-.94-4.88.41-1.38.88-2.76,1.35-4.25-.4-.49-.83-1-1.34-1.64q2.25-.17,3.18-.9c1.16.43,2.65.61,3.39,1.49.91,1.04,2.5.15,3.04,1.64,1.64-1.3,3.35-.81,5-.56.63.09,1.34.09,1.9-.11,1.24-.43,1.5-1.51.65-2.52-.76-.88-1.6-1.73-2.45-2.57-.73-.7-1.27-1.46-1.16-2.59.06-.7-.2-1.42-.36-2.14,1.37-.54.53,1,1.37,1.21.96-.41,1.69.29,2.55.96,7.76,6.08,15.43,12.35,22.61,19.13,6.62,6.27,13.25,12.48,19.58,19.01,13.83,14.35,26.41,29.74,37.85,46.08,8.69,12.44,16.64,25.42,23.9,38.77,2.27,4.21,4.37,8.5,6.57,12.73,1.21,2.29,1.9,4.79,2.33,7.33.1.66.31,1.32.56,1.91,1.15,2.95,2.29,5.94,3.47,8.89.46,1.15,1,2.3,1.46,3.47,1.06,2.57,2.12,5.11,3.18,7.67.1.29.31.53.58.97.15-.58.27-.99.48-1.73,1.14,2.49,2.18,4.74,3.23,6.93-.13.06-.25.09-.36.19-.2-.32-.35-.68-.56-.99-.46-.58-.33-1.78-1.67-1.46-.54-.74-1.12-1.44-1.6-2.23-.62-1.22-1.24-2.55-2.07-4.2Zm-6.32-.37c.75-1.64-.6-2.59-1.14-3.83-.33,1.5.6,2.58,1.14,3.83Z"/>
  <path class="cls-1" d="m548.22,653.43c-.23-2.44.98-3.91,2.75-4.87,1.56-.88,2.73-1.99,3.29-3.94-.73,0-1.56-.24-2.1.03-1.81.96-3.72.21-5.59.5-.73.14-1.54.12-2.3.19-1.52.2-2.45-.93-1.85-2.34.23-.61.98-1.14.98-1.73,0-3.29,2.79-4.65,4.58-6.84-.31-.56-.65-1.16-1.01-1.81,1.77-.55,3.35-1.09,5.2-1.64-2-.59-3.76-.7-5.24.26-1.01-.51-1.82-.9-2.62-1.38-.48-.29-.96-.7-1.29-1.14-.66-.96-1.32-2-1.9-3.04-.2-.4-.54-.93-.43-1.27.38-1.35-.83-2.01-1.12-3.04-.1-.27-.68-.38-1-.56-.98-.53-1.97-1.07-2.91-1.62-.22-.14-.43-.34-.54-.56-.45-1.4-.85-2.84-1.35-4.25-.08-.34-.23-.8-.53-.99-.88-.58-.66-1.3-.29-2.03-1.79-1.8-1.87-2.7-.56-5-.43-.14-.86-.4-1.25-.39-.83.03-1.69.32-2.52.32-3.51.06-3.51.03-5.49-3.11.38-1.06.79-2.21,1.18-3.3.15-.32.28-.8.48-.85,1.82-.38,2.22-2.37,3.7-3.14.33-.19.56-.88.54-1.31,0-.22-.73-.5-1.12-.53-.79-.1-1.6-.02-2.58-.02.2-.94.4-1.79.63-2.61,2.14-.75,4.24-1.47,6.42-2.24,1.01.76,2.1.8,3.47.5,1.33-.29,2.81.03,4.65.09.76-.7,1.92-1.29,3.51-1.15.85.08,1.6-1.04,2.66-.82.22.05.58-.1.76,0,1.64,1.44,3.24.29,4.82-.14.1-.19.23-.34.29-.51.58-2.2.6-2.16,2.78-1.4,2.39.8,3.7.2,5.18-2.06.12-.21.2-.45.27-.56.98.1,1.85.18,2.88.29.27.76.08,1.31-.98,1.5-.41.07-1.06.18-1.24.5-1.11,2.45-3.54,3.81-4.93,6.07-.71,1.19-1.12,1.3-2.58,1-.33-.04-.66-.07-1-.1q-2.52-.4-4.42,1.44c.52.56.98.36,1.56,0,1.43-.92,1.71-.95,2.78.39.79.98,1.67,1.44,2.88,1.12.78,1.88.89,1.92,2.52.9q1-.61,2.58-.16c.1.66.17,1.35.27,2.06-.2.14-.4.28-.58.28-2.08,0-3.31,1.47-4.7,2.72-1.21,1.12-1.27,3.08-.13,4.66.63-.32,1.19-.65,1.79-.96.1.07.23.18.31.29-.96,1.36-1.87,2.74-2.85,4.12-1.94-.16-3.84-.23-5.59.56-.38.94-.71,1.79-1.04,2.69.18.26.4.58.66.99-.17.31-.4.66-.48,1.03-.15.34-.18.73-.25,1.04.73.72,1.83-.51,2.37.66.5,1.14,1.27,2.2,1.52,3.38.1.64-.66,1.48-1.16,2.15-.25.36-.73.49-1.08.72.02.14.08.24.15.38.79-.2,1.75-.24,2.33-.72.91-.7,1.79-.76,2.76-.8.54,0,1.06-.29,1.74-.5q1.29.64,2.3.45c.79.8.73,1.5.06,2.39-1.12,1.39-1.6,2.96-1.09,4.8.21.61.06,1.35.06,2.1,1.23.06.81-1.06,1.27-1.88.6.74,1.06,1.37,1.6,2.07v-2.1c1.12.29,1.54.93,1.24,1.79-.45,1.32-.29,2.88-1.69,3.88-.33.24-.2,1.14-.31,1.68.88-.16,1.81-.58,2.72-.45.5.05.89.96,1.5,1.68-.71.13-1.14.22-1.39.26-.54.83-.89,1.6-1.44,2.27-1.62,1.92-1.56,2.27.83,3.24-.33.32-.62.58-.94.88,0,.29.05.69.06,1.06.04.4.13.76.15,1.12-.66,1.16-1.73.31-2.73.64.27,1.09.48,2.07-.31,3.16-.65.86-.63,2.16-.96,3.55-2.45-1.62-4.7-.38-6.92-.24-.87.03-1.78.15-2.67.25Z"/>
  <path class="cls-1" d="m632.26,716.35c.29.48.63.95.96,1.44h-1.94c.85,1.14,2,.74,3.24,1.4-1.52.25-2.6.42-3.79.61-.73-1.32-1.31-2.88-3.12-3.06-.06-.42-.06-.88-.15-1.28-.13-.66-.02-1.23.66-1.49.88-.32.69-.99.2-1.34-.78-.56-.52-1-.25-1.69.1-.31-.13-.76-.25-1.67-1.04,1.22-1.72,2.02-2.32,2.76-.53-.29-1.21-.85-1.35-.74-.43.34-.85.96-.85,1.43.04,1.2.31,2.37.48,3.7-.48.4-1.06.83-1.69,1.34-1.04-1.15-.13-3.12-1.95-3.79-1.34.33-.89,1.35-.62,2.45-.71.56-1.39,1.16-2.12,1.68-1.08.66-1.67.29-1.94-.94-.25-1.2-.65-2.32-1-3.51-.73.56-.76,1.19-.25,1.86.54.73.69,1.45.13,2.38-.65.1-1.39.2-2.23.31-.4-.51-.81-1-1.29-1.61-.6.76-1.11,1.43-1.73,2.23-.4-.26-.73-.47-1.12-.72-.6.19-1.21.4-1.82.62-.33,2.18-.41,2.26-3.14,2.79-.31-.99-.66-1.96-1.06-3.15-.68.66-1.21,1.26-1.83,1.71-.54.42-.94,1.22-2.06.82.62-.86,1.18-1.66,1.87-2.65-.53-.16-1.23-.37-2.14-.64-.89-1.16.81-1.66,1.24-2.54-.63-.52-2.18.4-1.73-1.31-.75-.08-1.47-.08-2.14-.28-.31-.1-.73-.48-.73-.76-.05-.27.39-.58.65-.83.18-.15.46-.26.68-.37-.52-.62.15-1.76-1.66-1.9.98-.7,1.46-1.03,2.08-1.46,0-.19-.13-.76.13-1.12.31-.53.91-.94,1.39-1.36.41-.34.89-.64,1.27-1.03.25-.27.31-.73.58-.99.41-.51.94-.94,1.47-1.44.5.29.91.56,1.46.85.05-.08.1-.17.15-.27.27-.39.5-1.06.85-1.14,2.62-.5,3.95-2.68,5.76-4.2.21-.16.41-.35.65-.54.29.41.62,1.02.96,1.02.4,0,.86-.42,1.21-.76,1.02-.93,1.09-.93,2.35-.06.56-1.39,1.59-2.21,3-2.53.13-.03.31.02.36-.06,1.82-2.5,3.99-1.13,6.07-.53.54.17,1.23.49,1.67.29,1.06-.45,1.69.1,2.27.75,1.46,1.6,3.14,1.7,5.05.94.5-.21,1.06-.42,1.56-.39.94.14,1.82.45,2.75-.5.06.17.12.32.18.49-.15,1.09-.27,2.19-.43,3.4-1.56-.86-2.08-.72-3.16.55-.31.32-.76.52-1.16.66-.69.24-1.35.42-2.02.99.27.05.66.24.88.1.62-.32,1.18-.82,2.12-.29-.38.42-.73.76-1.18,1.28,1.54-.11,3-.08,1.93,2.37,1.85-.19,3.44-.27,4.98-.51.76-.13,1.31-.1,1.62.66.31.8.1,1.34-.76,1.47-1.79.24-3.56.37-5.38.64-1.12.17-2.25.46-3.37.72-.29.08-.58.3-.88.42.1.14.19.24.25.34h3.58c-1.54,1.19-3.1,1.42-4.24,2.53.48-.04,1-.1,1.58-.15,0,.22-.04.47-.04.76.41.02,1,.26,1.24.05.73-.67,1.46-.35,2.14-.11,1.02.35,1.77-.14,2.52-.64,1.97-1.34,1.93-1.34,3.76.45-.46,1.27-1.16.21-1.92.11.13.66.25,1.23.35,1.8-1.12.73-1.54-.5-2.27-.78-.27.18-.54.38-.89.65.6.34,1.11.64,1.89,1.1-.68.31-1.14.53-1.66.76.18.31.38.66.66,1.19-1.48-.49-.89,1.12-1.95,1.44-.58-.42-1.24-.98-2.04-1.62-.27.08-.76.26-1.24.42-.15-.41-.23-.76-.41-1.3q-.45.88.46,1.32Z"/>
  <path class="cls-1" d="m566.15,614.21c-.78-1.23-.81-2.47-.54-3.85.25-1.06-.04-2.24-.1-3.38,0-.46-.04-.93.08-1.34.69-1.88,1.44-3.71,2.23-5.77.89-.08,2,.08,3.18-.1,1.77-.32,3.06-1.45,4.62-2.08,1.95-.86,3.77-2.02,5.66-3.03.94-.49,1.87-1.01,2.98-.18.23.18.76.02,1.34.02-.2.35-.4.58-.71.98,1.71.19,2.1,1.69,3.1,2.69-.69.4-1.32.78-2.2,1.31h2.72c-.25.88-.73,1.27-1.46,1.27s-1.12.39-1.6.92c-.65.71-1.5,1.19-2.63,2.04h2.29c-.96.88-1.73,1.47-2.35,2.21-.54.72-.96,1.57-1.42,2.36.79.28,1.79.63,2.81.92.79.24,1.56.58,1.77,1.44.2.96-.65,1.48-1.12,2.13-.27.32-.81.42-1.18.64.65,1.06,1.23,2.08,1.83,3.08.29.56.02,1.19-.58,1.02-1.33-.37-2.78.38-4.22-.48-.56-.35-1.69.18-2.76.34-.65.59-1.49,1.34-2.58,2.35,1.42.34,2.48.6,3.51.88,0,.14,0,.27-.04.42-.48.24-1.01.42-1.47.74-.38.24-.86.56-.91.92-.21,1.08-.94,1.33-1.85,1.48-1.5.29-3.14.19-4.24,1.74-.5-.6-.88-1.06-1.24-1.47-1.34.14-2.68.26-3.99.4-1-1.87-1.87-3.54-2.75-5.19-.54-.96.08-2.18.52-2.29,1.29-.3,1.41-1.54,2.23-2.18.3-.2.58-.51,1.1-.93Zm15.97-10.41c-.04-.11-.06-.21-.13-.32-.41.14-.88.24-1.34.41,0,0,.05.29.06.58.55-.26.97-.45,1.4-.66Z"/>
  <path class="cls-1" d="m221.34,741.07c-1.66-.27-2.99-1.01-4.05-2.31-.9-1.16-1.92-2.32-2.86-3.48-.17-.24-.4-.66-.29-.88.88-1.87-1.11-2.77-1.46-4.23-.19-.7-1.12-1.29-1.82-1.69-.54-.29-1.27-.18-1.95-.48.52-.2,1.05-.4,1.58-.61.84.59,1.74,1.15,2.58,1.79.3.26.5.76.66,1.15.27.58.43,1.19.7,1.78.58,1.21,2,1.84,2.05,3.45,0,.37.6.82,1.06,1.12,1.66,1.12,2.65,2.85,3.74,4.45l.06-.06Z"/>
  <path class="cls-1" d="m266.87,448.42c-2.3.47-3.64-1.3-5.87-1.98,2-.27,4.29.54,5.87,1.98Z"/>
  <path class="cls-1" d="m203.5,743.01c1.18.91,2.35,1.84,3.51,2.75-.08.1-.17.22-.27.36-1.21-.88-2.43-1.76-3.64-2.65.13-.17.28-.33.4-.46Z"/>
  <path class="cls-1" d="m445.55,672.76c-.6-.98.38-1.47.79-2.07.25-.36.68-.52,1.06-.76h0c-.06.35,0,.76-.2.99-.48.65-1.12,1.22-1.69,1.81.02.04.04.04.04.04Z"/>
  <path class="cls-1" d="m447.41,669.93c.46-.18.92-.38,1.39-.56-.06,1.32-.91.49-1.39.56h0Z"/>
  <path class="cls-1" d="m293.58,216.05c-.2-.27-.43-.51-.83-.96-.13,2.45-1.29,3.4-3.47,3.12-.27,1.47-.83,2-2.33,2.43-.68.21-1.34.77-2.14,1.26.06.15.18.3.33.66-.48.3-1,.63-1.6,1,1.01.92.54,1.55-.53,2.21-.2-.25-.4-.51-.6-.79-1.1,1.28-2.83,1.93-3.56,3.62-.2.51-.86.79-.48,1.49.11.17-.06.54-.2.66-.75.63-1.52,1.19-2.4,1.85-.43-1.42-.86-2.66-1.16-3.98-.13-.58-.03-1.26.1-1.89.23-1.55.96-2.93.88-4.63-.06-.97,1.09-1.96,1.83-3.17.5.54.83.88,1.23,1.28.15-.13.53-.29.54-.45.11-2.38,1.59-4.08,2.79-5.91,1.08-1.68,1.94-3.49,3.1-5.08,2.25-3.02,4.58-5.97,6.95-8.91,2.53-3.12,5.03-6.29,7.63-9.35,1.29-1.44,2.35-3.24,4.33-3.96.19-.09.3-.29.53-.29,2.55-.66,4.84-2.12,7.32-3.04,1.37-.47,3.12-.04,4.35,1.08.29.25.31.96.2,1.42-.17.99-.79,2.02-.7,2.97.24,1.8,0,3.13-1.48,4.42-.75.66-1.49,1.46-2.24,2.16-2.06,1.91-3.76,4.19-5.63,6.34-.42.49-.53,1.02-.23,1.66.18.4.27.87.36,1.34.35,1.62.24,3.08-1.19,4.29-.96.76-2.02,1.53-2.08,2.99,0,.29-.46.58-.79.76-.94.49-1.85.99-2.83,1.38-1.17.49-2.4.87-3.57,1.24-.77.27-1.51.48-2.42.77Z"/>
  <path class="cls-1" d="m110.59,382.9c.15-.41.3-.79.48-1.21.06.04.13.04.19.07-.18.45-.31.87-.46,1.32-.08-.07-.13-.15-.21-.18Z"/>
  <path class="cls-1" d="m822.99,547.76c-.89-.08-1.75-.14-3.06-.18.79-.44,1.23-.72,1.75-1,.45.42.89.78,1.31,1.19h0Z"/>
  <path class="cls-1" d="m824.1,683.24c-.13-.66-.5-1.4.41-2.03q.14,1.05-.41,2.03Z"/>
  <path class="cls-1" d="m812.93,642c0-.86.18-1.52,1.31-1.47.15,1.17-.91.98-1.34,1.41l.03.06Z"/>
  <path class="cls-1" d="m836.2,557.91c-.31.41-.6.84-.92,1.24-.08.13-.27.21-.62.1.35-.53.75-1.07,1.14-1.6.12.1.25.17.4.26Z"/>
  <path class="cls-1" d="m852.11,507.28v-1.2c.13,0,.21,0,.29-.02.04.41.1.76.1,1.16-.12,0-.25.03-.4.06Z"/>
  <path class="cls-1" d="m741.59,719.67c0,.31.15.77,0,.88-.65.44-1.35.76-1.97,1.19-.76.52-1.39.19-2-.24-.86-.56-1.37.06-1.79.62-.43.44-.71,1-1.23,1.57.18-1.02,0-1.6-1.06-1.3l.04.04c.48-.37,1-.74,1.69-1.3-.56-.5-1.09-.99-1.69-1.52.2,0,.6-.1.71,0,1.06,1.17,2.73.69,3.91,1.49.4.26,1.23-.11,1.83-.18.76-.12,1.44-.36,1.6-1.23h-.05Z"/>
  <path class="cls-1" d="m607.08,865.59c-.85.37-1.85.27-2.02,1.38,0,.17-.58.38-.86.33-1.85-.33-2.91-.23-4.75.46-.58.23-1.16.4-1.74.58-.06-.14-.12-.27-.18-.4,1.77-.54,3.51-1.1,5.28-1.63.33-.08.78,0,.96-.2.92-1.07,2.08-.61,3.31-.53Z"/>
  <path class="cls-1" d="m725.92,799.27c-.31.6-.52,1-.78,1.54-1.46-.94-2.3,1.01-3.91.82.6-.72,1.12-1.3,1.56-1.83,1.01-.16,1.97-.31,3.13-.53Z"/>
  <path class="cls-1" d="m629.27,859.67h-2.4c.54-1.32.96-2.34,1.35-3.36.18.06.33.12.52.18-.13.58-.43,1.17-.4,1.73.07.44.54.87.92,1.46Z"/>
  <path class="cls-1" d="m628.84,781.1c.71-.17,1.39-.32,1.99-.49.53.53.94,1.07,1.44,1.52.43.41,1.14.61.94,1.41-1.47-.86-2.91-1.68-4.39-2.48-.03-.03.02.04.02.04Z"/>
  <path class="cls-1" d="m605.69,802.16c.58.27,1.19.51,1.77.76.1.62.17,1.2.27,1.86-1.49-.2-1.29-1.82-2.04-2.63Z"/>
  <path class="cls-1" d="m744.73,703.3c-.92.77-1.87,1.58-2.86,2.29-.08.09-.52-.26-.85-.44,1.31-.65,2.55-1.2,3.76-1.78l-.06-.06Z"/>
  <path class="cls-1" d="m612.15,864.12c-1.04.37-1.95.69-3.23,1.13q1.94-1.64,3.23-1.13Z"/>
  <path class="cls-1" d="m733.85,726.72c.13.36.21.73.38,1.26-.6.16-1.12.29-1.85.48.2-1.07.6-1.62,1.54-1.7l-.06-.04Z"/>
  <path class="cls-1" d="m672.86,841.79c-.33-.46-.98-.88-.38-1.5.2-.26.65-.37,1.16-.23-.26.56-.51,1.14-.78,1.73h0Z"/>
  <path class="cls-1" d="m609.72,799.95c-.79-.45-1.37-.79-2.06-1.2.27-.47.96-.41,1.39-.15.3.21.41.81.66,1.35Z"/>
  <path class="cls-1" d="m602.11,846.45c.23,1.5-.88,1.39-1.47,1.94-.1-.13-.2-.26-.31-.4.58-.51,1.18-1.04,1.79-1.55Z"/>
  <path class="cls-1" d="m596.91,850.43c.41-1.13,1.23-1.69,2.53-1.38-.86.43-1.73.88-2.6,1.35,0-.03.06.04.06.04Z"/>
  <path class="cls-1" d="m735.38,667.42c-.31.41-.66.8-1,1.2-.08-.1-.17-.18-.28-.29.38-.34.73-.72,1.12-1.06.05.06.11.11.15.16Z"/>
  <path class="cls-1" d="m635.39,779.44c-.15.88-.83.76-1.79.59.63-.46,1.06-.77,1.47-1.08.1.18.2.34.31.49Z"/>
  <path class="cls-1" d="m743.64,709.08c.94-.58,1.54-.99,2.18-1.38-.31.87-.89,1.43-2.18,1.38Z"/>
  <path class="cls-1" d="m745.45,691.68c-.35.58-.68,1.27-1.74.96.5-.73,1-1.06,1.81-.91l-.06-.05Z"/>
  <path class="cls-1" d="m739.92,712.72c-.71.96-1.23,1.35-2.08.88.53-.24,1.12-.48,2.08-.88Z"/>
  <path class="cls-1" d="m723.47,750.88c-.52.24-.88.42-1.23.53-.08.03-.31-.12-.54-.29.4-.76.88-.82,1.77-.24Z"/>
  <path class="cls-1" d="m647.01,753.6c.94-.16,1.5-.26,2.17-.37-.52.67-1.02,1.06-2.17.37Z"/>
  <path class="cls-1" d="m625.59,786.36c.22.32.5.66.73,1.02-.15.07-.39.29-.39.29-.29-.32-.54-.66-.81-.99.16-.1.32-.21.47-.32Z"/>
  <path class="cls-1" d="m594.73,851.44c.65-.55,1.12-1.39,2.18-1.02,0,0-.06-.06-.06-.03-.71.34-1.44.67-2.17,1l.05.05Z"/>
  <path class="cls-1" d="m744.78,703.36c.25-1.15.48-1.3,1.79-1.01h0c-.6.31-1.23.64-1.85.95l.06.06Z"/>
  <path class="cls-1" d="m733.53,722.39c-.27.37-.5.74-.76,1.09-.31-.96.08-1.17.81-1.05l-.05-.04Z"/>
  <path class="cls-1" d="m741.61,700.93c.4-.27.81-.5,1.19-.76.08.1.15.2.2.31-.41.25-.86.45-1.27.69-.06-.07-.1-.17-.12-.24Z"/>
  <path class="cls-1" d="m744.66,706.1c.65-.03,1-.06,1.58-.09-.52.77-.91.88-1.58.09Z"/>
  <path class="cls-1" d="m723.16,752.59c-.27.12-.58.24-.86.38-.06-.12-.13-.29-.13-.32.28-.14.58-.24.88-.38.02.11.05.21.11.32Z"/>
  <path class="cls-1" d="m631.56,773.81h-1.01v-.27c.33-.06.66-.1,1-.14.02.14.02.27.02.41Z"/>
  <path class="cls-1" d="m617.77,785.38c.5.14.91.29,1.41.44-.1.19-.19.35-.19.35-.48-.11-.96-.23-1.39-.37.07-.13.14-.29.18-.42Z"/>
  <path class="cls-1" d="m830.29,365.4c-.54-1.26-1.47-2.34-1.14-3.83.54,1.24,1.89,2.2,1.14,3.83Z"/>
  <path class="cls-1" d="m632.26,716.35q-.91-.42-.46-1.24c.19.53.28.89.41,1.3l.05-.06Z"/>
  <path class="cls-1" d="m582.12,603.8c-.43.2-.86.41-1.39.66-.02-.29-.06-.58-.06-.58.46-.17.92-.28,1.34-.41.06.11.08.21.12.32Z"/>
</svg>