<?xml version="1.0" encoding="UTF-8"?>
<svg id="Ebene_1" data-name="Ebene 1" xmlns="http://www.w3.org/2000/svg" viewBox="0 0 987 987">
  <defs>
    <style>
      .cls-1 {
        stroke-width: 0px;
      }
    </style>
  </defs>
  <path class="cls-1" d="m558.76,355.77l-87.2-100.6c-27.63-31.82-42.84-72.56-42.82-114.71l.26-21.46h-95l-.17,21.46c.02,64.99,23.48,127.8,66.08,176.87l87.07,94.6v13.06s-34.53.18-34.53.18c-39.31,0-71.18,31.87-71.18,71.18v130.49h-73.55c-30.46-.02-57.54,19.36-67.39,48.17l-22.07,64.53,89.22,33.11,17.2-50.9h68.45l83.05-81.05v-120.63h7.48c54.83.02,99.32-44.42,99.33-99.27.02-23.89-8.59-46.98-24.23-65.05Z"/>
  <polygon class="cls-1" points="699.81 469.28 699.45 568.62 766.25 568.62 766.25 698.78 698.6 698.78 698.6 798.12 764.54 798.12 865.59 699.64 865.59 568.62 764.54 469.28 699.81 469.28"/>
  <polygon class="cls-1" points="567.74 533.3 567.52 602.9 608.31 602.9 608.31 664.5 567 664.5 567 734.1 617.48 734.1 679.18 673.96 679.18 593.96 617.48 533.3 567.74 533.3"/>
  <rect class="cls-1" x="186.4" y="721.7" width="101.37" height="99.24" transform="translate(-140.67 1484.37) rotate(-135)"/>
</svg>