<?xml version="1.0" encoding="UTF-8"?>
<svg id="Ebene_1" data-name="Ebene 1" xmlns="http://www.w3.org/2000/svg" viewBox="0 0 987 987">
  <defs>
    <style>
      .cls-1 {
        stroke-width: 0px;
      }
    </style>
  </defs>
  <path class="cls-1" d="m161.93,431.94l.02-31.81c0-11.83,8.58-22.01,20.41-24.05l63.83-10.76c6.14-24.05,15.73-47.1,28.6-68.91l-37.49-52.64c-6.93-9.79-5.9-23.05,2.68-31.6l22.65-22.62,22.65-22.62c8.58-7.74,21.84-8.75,31.42-2.02l52.58,37.56c21.83-12.84,44.88-22.4,68.95-28.5l10.85-63.82c2.05-11.82,12.25-20.38,24.08-20.37l31.81.02,31.81.02c11.82,0,22.01,8.58,24.05,20.41l10.76,63.83c24.46,6.14,48.11,15.94,70.33,29.62l52.23-37.08c9.79-6.93,23.05-5.9,31.6,2.68l22.62,22.65,22.62,22.65c8.36,8.36,9.57,21.83,2.63,31.61l-37.76,53.19c12.83,21.83,21.99,45.29,28.09,68.95l63.41,10.04c11.82,2.05,20.38,12.25,20.37,24.08l-.02,31.81-.02,31.81c0,11.82-8.58,22.01-20.41,24.05l-64.24,10.76c-6.34,23.85-15.94,46.89-29.01,68.49l37.08,52.23c6.93,9.79,5.9,23.05-2.68,31.6l-22.65,22.62-22.65,22.62c-8.36,8.36-21.83,9.57-31.61,2.63l-53.19-37.76c-21.83,12.84-45.29,21.99-68.95,28.09l-10.65,63.2c-2.05,11.82-12.25,20.38-24.08,20.37l-31.81-.02-31.81-.02c-11.82,0-22.01-8.58-24.05-20.41l-10.76-64.24,70.52-70.77h100.1s78.94-78.94,78.94-78.94v-216.4s-78.94-78.94-78.94-78.94h-204.71s-78.26,78.94-78.26,78.94v104.49s-77.77,70.01-77.77,70.01l-63.82-10.85c-11.82-2.05-20.38-12.25-20.37-24.08l.02-31.81Z"/>
  <polygon class="cls-1" points="468.56 289.08 531.99 352.02 472.87 412.13 528.79 468.04 588.49 407.34 651.67 470.52 594.59 527.6 470.25 542.77 397.62 470.15 412.32 345.33 468.56 289.08"/>
  <rect class="cls-1" x="291.26" y="410.46" width="101.37" height="374.02" transform="translate(161.26 1261.73) rotate(-135)"/>
</svg>